<?xml version="1.0" encoding="UTF-8"?>
<svg xmlns="http://www.w3.org/2000/svg" viewBox="0 0 512 512" width="512" height="512">
<path d="M133.01 58.99C134.01 59.99 135.02 60.98 136.02 61.98C136.68 62.65 137.35 63.32 138.02 63.98C140.02 65.98 142.02 67.98 144.03 69.97C144.69 70.64 145.36 71.31 146.02 71.98C146.71 72.64 147.4 73.31 148.09 73.98C148.31 73.99 148.53 73.99 148.75 74C148.84 74.3 148.93 74.61 149.02 74.91C149.69 75.6 150.35 76.3 151.01 76.99C153.68 79.65 156.35 82.32 159.02 84.98C160.68 86.65 162.35 88.32 164.01 89.99C164.7 92.02 167.24 93.85 168.82 95.42C173.42 99.99 177.98 104.61 182.49 109.26C184.02 110.84 186.59 114.4 188.82 114.84C191.53 115.38 195.58 113.64 198.27 113.09C205.19 111.67 212.09 110.17 219.01 108.74C225.75 107.34 232.6 106.21 239.31 104.65C244.05 103.55 249.37 101.83 254.25 101.8C260.39 101.77 267.01 104.01 273.01 105.26C285.08 107.77 297.21 110.91 309.36 112.78C311.93 113.17 319.22 116.05 320.94 113.96C333.95 100.96 346.95 87.95 359.96 74.95C365.96 68.96 371.97 62.96 377.97 56.97C380.64 54.31 383.31 51.65 385.98 48.98C386.65 48.32 387.32 47.65 387.99 46.99C402.07 33.23 416.16 19.47 430.25 5.72C432.25 8.24 431.73 14.55 432.13 17.73C433.43 27.89 434.73 38.06 435.88 48.25C436.56 54.23 437.04 60.3 437.9 66.25C438.48 70.19 439.73 74.79 439.53 78.75C439.2 84.96 437.12 91.6 435.95 97.75C433.24 111.93 430.49 126.11 428.02 140.26C425.29 155.92 423.02 174.79 418.75 189.98C417.49 188.99 416.23 188.01 414.98 187.03C413.85 183.87 408.84 181.74 408.45 178.25C407.73 171.88 412.51 157.81 413.44 150.74C415.54 134.68 419.23 118.2 422.49 102.27C424.06 94.58 426.77 86.29 427.25 78.48C427.47 74.73 426.31 69.88 425.66 66.16C424.22 57.97 423.54 49.51 422.46 41.25C422.13 38.71 422.97 34.91 420.78 33.25C394.67 65.75 368.57 98.25 342.46 130.75C347.98 136.49 353.5 142.23 359.02 147.97C363.36 152.63 367.71 157.29 372.05 161.95C373.04 162.96 374.03 163.97 375.02 164.98C380.69 170.98 386.36 176.98 392.02 182.98C393.02 183.98 394.02 184.98 395.01 185.99C400.37 191.65 405.73 197.31 411.09 202.98C411.39 203.07 411.7 203.16 412 203.25C412 203.47 412 203.69 412 203.91C412.49 205.48 413.92 206.45 414.85 207.88C416.68 210.68 418.44 216.48 418.75 219.8C411.25 222.88 403.75 225.95 396.25 229.03C394.87 226.88 396.38 223.11 393.88 221.39C390.36 218.96 382.37 220.59 378.25 220.6C364.75 220.63 351.25 220.53 337.75 220.59C324.58 220.65 311.42 220.62 298.25 220.62C292.03 220.62 284.99 219.69 278.86 220.68C273.21 221.59 268.6 228.36 263.51 230.73C259.63 232.55 252.96 231.42 248.75 231.35C241.03 231.22 236.67 222.12 229.43 220.77C224.03 219.76 217.75 220.59 212.25 220.58C200.75 220.57 189.25 220.62 177.75 220.62C162.58 220.62 147.42 220.62 132.25 220.62C128.21 220.62 117.83 219.4 114.61 221.34C112.06 222.88 113.22 226.53 112.25 228.82C104.92 225.97 97.58 223.12 90.25 220.27C89.73 218.21 90.91 215.79 91.58 213.8C92.2 211.98 92.52 209.87 93.44 208.17C96.27 202.9 105.19 198.28 106.99 192.9C107.08 192.27 107.16 191.63 107.25 191C107.81 190.98 108.36 190.96 108.92 190.95C114.28 185.27 119.63 179.59 124.99 173.91C125 173.69 125 173.47 125 173.25C125.3 173.16 125.61 173.08 125.91 172.99C129.14 171.84 132.79 166.58 135.26 164.01C141.79 157.21 148.16 150.25 154.61 143.37C157.11 140.71 161.81 137.36 162.97 133.97C164.04 132.9 165.11 131.82 166.18 130.75C153.78 115.19 141.37 99.63 128.97 84.06C127.31 82.05 125.65 80.03 123.99 78.01C122.93 74.21 117.96 69.99 115.45 66.8C109.28 59 102.87 51.38 96.64 43.62C94.39 40.81 91.21 34.31 87.75 33.24C86.12 34.89 86.83 38.49 86.41 40.7C84.99 48.32 84.58 56.08 83.67 63.75C83.1 68.53 81.62 73.36 81.67 78.25C81.7 81.48 82.95 84.64 83.58 87.76C84.65 93.08 85.36 98.47 86.54 103.77C89.93 119.09 91.82 134.86 95.06 150.25C96.39 156.56 97.45 162.89 98.53 169.24C99.01 172.06 100.8 175.85 100.03 178.73C99.48 180.76 96.49 183.3 95.07 184.82C93.58 186.42 91.86 189.32 89.75 189.76C86.92 182.61 86.65 171.53 84.94 163.77C79.77 140.19 76.62 115.98 71.6 92.22C70.67 87.83 69.35 82.72 69.32 78.25C69.3 75.56 71.12 72.02 69.99 69.56C70.05 69.02 70.11 68.47 70.17 67.93C73.51 54.4 74.58 36.86 76.07 22.75C76.41 19.58 76.92 7.46 78.75 5.72C96.84 23.47 114.93 41.23 133.01 58.99ZM137.97 280.02C136.81 277.07 132.81 275.46 131.17 272.6C129.18 269.16 128.61 264.8 127.17 261.11C123.15 250.77 118.39 239.61 120.25 228.23C126.14 226.48 142.25 227.83 149.25 227.83C169.75 227.84 190.25 227.81 210.75 227.82C219.33 227.82 225.48 226.06 232.69 231.06C234.12 232.05 237.44 233.51 237.86 235.29C238.9 239.64 237.22 244.24 236.16 248.33C234.78 253.69 233.58 259.31 231.76 264.54C229.95 269.71 224.42 275.05 221.04 279.32C219.35 281.47 214.81 289 212.51 289.73C207.96 291.17 198.32 289.86 193.25 289.86C183.08 289.86 172.92 289.86 162.75 289.88C158.68 289.89 153.79 290.64 149.81 289.83C145.08 288.88 142.5 281.39 137.97 280.02ZM274.98 230.99C277.06 230.48 278.51 228.27 280.75 227.9C288.47 226.61 297.41 227.81 305.25 227.83C321.58 227.85 337.92 227.83 354.25 227.84C361.19 227.85 382.91 226.54 388.09 228.25C390.54 238.91 385.28 249.78 381.79 259.59C380.33 263.72 379.53 269.24 377.16 272.9C375.11 276.05 371.54 278.51 368.81 281.05C366.27 283.42 362.7 288.52 359.44 289.69C355.64 291.05 346.59 289.86 342.25 289.86C331.58 289.86 320.92 289.87 310.25 289.88C306.14 289.88 299.84 291.09 295.96 289.74C293.56 288.9 288.33 280.49 286.58 278.15C283.56 274.1 279.49 270.1 277.24 265.55C274.95 260.93 274.12 255.43 272.75 250.48C271.51 245.99 269.07 239.6 270.72 234.91C271.36 233.1 274.09 232.57 274.98 230.99ZM105.02 236C106.88 237.49 111.14 237.75 112.46 239.83C113.53 241.53 114.37 246.77 115.22 249.08C118.37 257.7 120.58 269.31 125.25 277.03C126.74 279.51 129.65 281.52 131.74 283.5C133.65 285.32 135.68 287.84 138.06 288.96C143.17 298.13 150.76 297.04 159.75 297.04C172.08 297.04 184.42 297.04 196.75 297.04C199.88 297.04 214.76 297.82 215.99 295.99C216.47 296.24 216.96 296.5 217.45 296.75C217.62 304.1 218.46 311.43 219.07 318.75C219.45 323.42 219.02 328.89 221.77 332.97C225.65 338.73 232.51 336.79 237.27 340.49C241.75 343.96 239.23 348.31 240.99 352.73C242.2 355.74 245.66 357.67 247.31 360.43C248.44 362.32 248.23 372.11 247.5 374.25C237.39 379.13 226.27 382.51 215.76 386.54C211.74 388.09 206.07 391.57 201.75 391.67C198.53 391.75 196.01 387.65 192.96 387.02C189.63 384.69 186.3 382.35 182.97 380.02C178.64 377.02 174.31 374.02 169.98 371.01C164.64 367.35 159.31 363.68 153.97 360.02C152.97 359.35 151.97 358.69 150.96 358.03C138.97 349.69 126.98 341.35 114.98 333.01C114.24 331.59 101.98 323.12 100.36 323.24C96.76 323.52 92.23 327.18 89 328.74C80.49 332.83 72.12 337.22 63.64 341.39C60.28 343.05 55.46 346.74 51.77 346.75C63.61 307.75 75.45 268.75 87.29 229.75C93.2 231.83 99.11 233.91 105.02 236ZM398.04 330.02C385.04 339.02 372.04 348.03 359.04 357.03C352.37 361.69 345.69 366.35 339.01 371.01C338.02 371.68 337.02 372.35 336.03 373.02C335.04 373.69 334.05 374.36 333.06 375.03C330.71 376.69 328.36 378.35 326.01 380.01C322.69 382.35 319.37 384.69 316.04 387.03C313.12 387.68 310.77 391.41 307.75 391.6C303.21 391.88 298.49 387.45 293.99 387.01C282.98 382.59 271.97 378.17 260.96 373.75C260.01 370.66 259.77 363.49 261.28 360.5C262.81 357.46 266.46 355.51 267.48 352.22C268.91 347.55 266.98 343.69 271.46 340.22C275.9 336.79 282.79 339.38 286.73 332.48C291.5 324.11 289.15 306.24 291.25 296.54C308.59 297.01 326.26 297.03 343.75 297.03C348.08 297.03 360.11 298.35 363.33 296.07C367.23 293.29 382.17 279.95 383.83 276.11C387.45 267.79 389.76 258.71 392.82 250.12C393.6 247.93 395.02 240.86 396.3 239.53C397.88 237.89 401.96 237.09 404.08 236.3C409.62 234.23 415.43 230.71 421.25 229.66C432.95 268.69 444.66 307.72 456.36 346.75C452.66 346.45 448.01 342.76 444.65 341.11C435.85 336.8 426.98 332.49 418.29 327.96C410.21 323.76 410.2 321.4 402.35 326.59C400.9 327.55 398.89 328.58 398.04 330.02ZM138.09 275.97C138.31 275.98 138.53 275.99 138.75 276C139.17 276.42 139.58 276.83 140 277.25C140.02 277.47 140.04 277.69 140.06 277.92C140.74 279.55 148.51 287.07 150.28 287.45C156.28 288.74 169.49 287.51 176.25 287.51C184.58 287.51 192.92 287.48 201.25 287.49C204.27 287.49 209.27 288.43 212.04 287.27C214.04 286.44 218.19 279.47 219.72 277.46C222.76 273.47 226.93 269.38 229.14 264.87C231.41 260.22 232.45 254.32 233.62 249.32C234.61 245.1 236.68 240.74 235.49 236.27C235.07 234.71 232.46 233.45 231.17 232.57C224.9 228.29 216.66 229.84 209.25 229.85C189.58 229.85 169.92 229.84 150.25 229.84C142.93 229.84 129 228.37 122.49 230.25C119.01 238.68 128 256.81 130.82 265.36C132.14 269.34 133.71 274.48 138.09 275.97ZM359.92 285.93C360.03 285.28 360.14 284.64 360.25 284C360.8 284 361.35 283.99 361.9 283.99C364.38 283.23 366.64 280.15 368.6 278.34C370.69 276.42 373.35 274.55 374.93 272.16C378.56 266.66 381.8 252.68 384.2 245.89C385.9 241.09 387.25 235.36 385.75 230.24C378.95 228.42 365.77 229.85 358.25 229.84C338.58 229.8 318.92 229.85 299.25 229.84C294.31 229.84 285.3 228.65 280.84 230.11C279.08 230.69 277.3 232.47 275.81 233.55C274.82 234.27 273.14 235.21 272.72 236.42C271.43 240.14 273.39 244.81 274.34 248.38C275.7 253.49 276.77 259.06 278.78 263.96C280.75 268.74 285.5 273.51 288.71 277.54C290.76 280.1 293.52 285.87 296.53 287.22C299.03 288.34 303.53 287.48 306.25 287.49C313.92 287.52 321.58 287.51 329.25 287.51C336.92 287.51 344.58 287.58 352.25 287.52C354.62 287.5 358.84 288.47 359.92 285.93ZM279.75 323.69C269.99 319.93 264.72 324.73 254.75 324.92C248.1 325.05 241.77 321.74 235.25 321.63C232.56 321.59 230.67 323.5 228.22 323.75C225.87 317.48 226.3 302.46 226.06 295.25C225.96 292.25 225.01 287.66 226.12 284.85C228.5 278.86 235.81 273.95 238.29 267.57C239.82 263.62 242.58 249.05 244.7 246.95C246.47 245.19 251.81 244.07 254.25 244.05C256.71 244.04 262.86 245.23 264.26 247.51C266.46 251.12 268.28 262.68 270.12 267.66C272.58 274.34 279.85 278.69 282.57 285.2C283.66 287.81 282.63 291.98 282.44 294.75C282.01 301.24 281.68 307.75 281.39 314.25C281.26 317.06 281.5 321.54 279.75 323.69ZM205.01 416.99C206.04 420.69 211.68 426.12 214.86 428.4C219.54 431.76 225.11 432.69 230.56 434.24C240.79 437.14 251.31 441.32 261.9 438.7C270.37 436.61 286.16 433.62 293.04 428.78C302.45 422.18 307.57 410.48 316.49 403.24C329.3 392.85 345.77 382.52 359.73 373.49C368.4 367.89 376.9 361.98 385.47 356.24C388.73 354.07 395.06 351.27 396.99 347.99C402.08 344.84 407.16 341.68 412.25 338.53C401.25 376.64 390.25 414.74 379.25 452.85C378.16 451.91 377.07 450.97 375.98 450.03C374.98 448.7 373.97 447.38 372.97 446.05C371.98 444.7 370.98 443.36 369.99 442.02C368.99 440.69 367.99 439.35 366.99 438.02C363.99 434.02 360.99 430.02 357.99 426.02C356.57 424.21 355.16 422.39 353.75 420.58C352.51 421.72 351.26 422.87 350.02 424.01C344.36 429.04 338.7 434.06 333.04 439.09C333.03 439.31 333.01 439.53 333 439.75C332.58 440.17 332.17 440.58 331.75 441C331.53 441 331.31 441.01 331.1 441.01C325.07 446.35 319.05 451.68 313.03 457.02C310.04 459.71 307.05 462.4 304.06 465.09C303.96 465.39 303.85 465.7 303.75 466C303.53 466 303.32 466.01 303.1 466.01C296.74 471.68 290.39 477.36 284.03 483.03C281.03 485.71 278.03 488.4 275.04 491.09C274.94 491.39 274.85 491.7 274.75 492C274.53 492 274.31 492.01 274.09 492.01C270.73 495.01 267.37 498.01 264.01 501.01C260.76 503.62 257.5 506.22 254.25 508.83C252.13 507.22 250.02 505.61 247.9 504C247.69 504 247.47 504 247.25 504C247.15 503.7 247.06 503.39 246.96 503.09C243.97 500.4 240.97 497.71 237.97 495.02C231.97 489.69 225.97 484.36 219.97 479.03C216.61 476.02 213.26 473.02 209.9 470.02C209.69 470.01 209.47 470.01 209.25 470C209.15 469.7 209.05 469.39 208.95 469.09C203.27 464.07 197.59 459.05 191.9 454.03C191.6 453.94 191.3 453.84 191 453.75C190.99 453.53 190.98 453.31 190.97 453.09C187.64 450.07 184.3 447.05 180.96 444.03C174.96 438.7 168.97 433.36 162.97 428.02C160.23 425.54 157.49 423.05 154.75 420.56C152.56 421.62 149.56 425.71 149.01 428.02C147.01 430.68 145.01 433.35 143.01 436.02C138.42 441.62 133.84 447.23 129.25 452.84C118.25 414.67 107.25 376.5 96.25 338.32C99.27 339.67 101.79 341.92 104.56 343.7C112.64 348.87 120.43 354.51 128.43 359.81C148.13 372.87 167.63 386.23 187.17 399.53C192.06 402.86 195.65 406.8 199.55 411.21C201.16 413.03 202.84 416.04 205.01 416.99ZM218.92 413.06C218.61 412.96 218.31 412.85 218 412.75C218 412.53 218 412.31 218 412.1C215.21 408.48 212.43 404.87 209.64 401.25C212.28 399.12 216.36 398.55 219.47 397.23C227.56 393.81 235.97 390.95 244.21 387.9C247.11 386.82 251.63 383.78 254.74 384.04C258.65 384.36 276.11 391.9 280.89 393.84C285.46 395.69 295.76 398.08 298.95 401.25C296.49 405.52 288.47 414.92 284.38 417.64C281.14 419.77 276.51 420.11 272.83 421.12C267.3 422.64 261.47 424.58 255.71 424.78C247.09 425.08 234.36 421.43 226.11 418.67C223.01 417.64 221.7 414.22 218.92 413.06Z" fill="#ffffff" fill-rule="evenodd" stroke="#ffffff" stroke-width="0.25" stroke-linejoin="round"/>
<path d="M133.01 58.99C114.93 41.23 96.84 23.47 78.75 5.72C76.92 7.46 76.41 19.58 76.07 22.75C74.58 36.86 73.51 54.4 70.17 67.93C70.06 64.86 69.05 60.76 69.9 57.76C70.14 56.93 70.77 56.65 70.88 55.75C71.07 54.16 70.45 52.32 70.9 50.76C71.14 49.92 71.8 49.66 71.92 48.75C72.19 46.63 71.51 44.37 71.85 42.25C72 41.35 72.62 41 72.83 40.21C73.32 38.33 72.54 36.17 72.85 34.25C73 33.34 73.64 33 73.85 32.21C74.3 30.48 73.4 28.48 73.9 26.76C74.09 26.09 74.72 25.85 74.91 25.21C75.61 22.77 74.44 19.77 74.85 17.25C75 16.34 75.63 16 75.84 15.21C76.34 13.33 75.54 11.17 75.85 9.25C76.11 7.64 76.79 5.63 77.25 3.97C80.29 4.17 87.9 13.18 90.43 15.78C100.37 26 110.74 35.81 120.69 46.03C123.18 48.59 129.64 56.46 132.75 56.96C132.84 57.63 132.93 58.31 133.01 58.99ZM414.98 187.03C416.23 188.01 417.49 188.99 418.75 189.98C423.02 174.79 425.29 155.92 428.02 140.26C430.49 126.11 433.24 111.93 435.95 97.75C437.12 91.6 439.2 84.96 439.53 78.75C439.73 74.79 438.48 70.19 437.9 66.25C437.04 60.3 436.56 54.23 435.88 48.25C434.73 38.06 433.43 27.89 432.13 17.73C431.73 14.55 432.25 8.24 430.25 5.72C416.16 19.47 402.07 33.23 387.99 46.99C389.07 45.31 390.16 43.63 391.25 41.96C393.03 41.66 393.66 41.03 393.96 39.25C397.54 38.05 400.33 33.96 403.04 31.32C409.29 25.22 415.49 19.04 421.58 12.8C424.03 10.28 428.29 4.22 431.75 3.96C432.91 7.9 432.57 11.64 433.11 15.75C433.23 16.64 433.87 16.93 434.1 17.76C434.71 19.94 433.79 22.53 434.09 24.75C434.21 25.65 434.86 25.93 435.1 26.76C435.7 28.88 435.4 31.25 436.1 33.76C436.71 35.94 435.79 38.53 436.08 40.75C436.2 41.65 436.86 41.93 437.1 42.76C437.73 44.95 437.44 47.4 438.1 49.76C438.93 52.73 437.31 56.27 438.12 59.21C438.3 59.84 438.91 60.1 439.1 60.76C439.69 62.79 438.6 65.18 439.14 67.21C439.75 69.52 441.53 76.41 441.15 78.75C440.81 80.78 439.57 82.88 439.02 84.79C438.11 87.95 439.04 92.9 438.1 96.24C435.13 106.86 433.98 118.15 431.14 128.79C430.72 130.36 431.39 132.15 431.14 133.75C430.79 136.03 429.76 138.58 429.18 140.79C428.81 142.21 429.48 143.83 429.1 145.24C426.63 154.26 425.5 163.76 423.16 172.79C422.79 174.21 423.48 175.82 423.1 177.24C421.77 182.11 421.13 187.12 419.75 192.04C417.44 191.89 414.87 189.43 414.98 187.03ZM123.99 78.01C120.71 76.88 116.4 70.12 114.57 67.21C112.42 63.79 108.38 61.5 106.3 58.03C104.96 55.8 102.64 54.24 101.3 52.03C99.49 49.04 97.56 46.21 94.98 43.71C93.28 42.05 90.04 35.74 88 35.25C88.2 37.71 87.65 38.73 87.06 40.79C86.49 42.79 87.68 45.2 87.1 47.24C86.91 47.9 86.28 48.15 86.11 48.79C85.43 51.24 86.56 54.22 86.15 56.75C85.77 59.1 84.66 61.62 83.97 63.78C83.22 66.1 84.55 69.28 84.15 71.75C83.71 74.42 82.77 76.67 83.15 79.75C83.26 80.64 83.87 80.93 84.1 81.76C84.58 83.5 83.59 85.52 84.05 87.21C84.45 88.69 85.67 90.22 86.1 91.76C87.12 95.46 86.08 99.55 87.07 103.21C87.64 105.33 88.49 107.64 89.09 109.76C89.49 111.18 88.65 112.81 89.04 114.21C89.55 116.01 90.59 117.92 91.1 119.76C91.49 121.18 90.71 122.8 91.1 124.21C92.23 128.29 92.97 132.68 94.09 136.76C94.48 138.18 93.66 139.8 94.08 141.21C94.27 141.85 94.91 142.08 95.08 142.76C95.46 144.19 94.56 145.81 95 147.22C95.66 149.3 96.54 151.62 97.07 153.76C97.35 154.88 96.69 156.09 97.04 157.21C97.24 157.86 97.9 158.06 98.08 158.76C98.36 159.88 97.7 161.1 98.04 162.21C98.24 162.86 98.9 163.07 99.09 163.76C99.38 164.87 98.75 166.1 99.07 167.21C100.09 170.72 101.98 175.19 101.03 179.23C100.01 183.6 92.23 187.57 90.75 192.04C86.73 191.78 88.57 188.55 87.84 185.79C86.85 182.01 85.94 178.03 84.91 174.24C84.49 172.72 85.32 170.94 84.72 169.46C83.29 165.91 83.76 162.41 82.83 158.79C81.78 154.7 81.02 150.32 79.91 146.24C79.52 144.82 80.24 143.2 79.87 141.79C79.39 139.98 78.4 138.07 77.9 136.24C77.51 134.82 78.22 133.21 77.84 131.79C77.2 129.34 76.58 126.67 75.9 124.24C75.05 121.18 75.71 117.85 74.88 114.79C73.87 111.04 72.96 107 71.9 103.24C71.5 101.82 72.22 100.2 71.86 98.79C70.71 94.38 69.49 90.67 70.25 85.75C67.4 83.48 67.48 71.19 69.99 69.56C71.12 72.02 69.3 75.56 69.32 78.25C69.35 82.72 70.67 87.83 71.6 92.22C76.62 115.98 79.77 140.19 84.94 163.77C86.65 171.53 86.92 182.61 89.75 189.76C91.86 189.32 93.58 186.42 95.07 184.82C96.49 183.3 99.48 180.76 100.03 178.73C100.8 175.85 99.01 172.06 98.53 169.24C97.45 162.89 96.39 156.56 95.06 150.25C91.82 134.86 89.93 119.09 86.54 103.77C85.36 98.47 84.65 93.08 83.58 87.76C82.95 84.64 81.7 81.48 81.67 78.25C81.62 73.36 83.1 68.53 83.67 63.75C84.58 56.08 84.99 48.32 86.41 40.7C86.83 38.49 86.12 34.89 87.75 33.24C91.21 34.31 94.39 40.81 96.64 43.62C102.87 51.38 109.28 59 115.45 66.8C117.96 69.99 122.93 74.21 123.99 78.01ZM414.98 187.03C413 186.26 407.51 181.44 406.91 179.24C406.36 177.23 407.75 176.39 407.97 174.75C408.14 173.47 407.55 172.02 407.9 170.76C408.95 166.97 409.85 162.96 410.94 159.21C411.75 156.47 411.2 153.52 411.91 150.76C412.1 150.06 412.76 149.86 412.97 149.21C413.82 146.5 413.27 143.52 413.94 140.76C414.11 140.06 414.75 139.86 414.95 139.21C415.8 136.38 415.18 132.54 415.91 129.76C417.85 122.37 418.86 114.58 420.93 107.21C421.73 104.38 421.13 100.53 421.91 97.76C423.05 93.68 423.78 89.36 424.84 85.21C425.2 83.79 424.51 82.18 424.9 80.76C425.32 79.24 425.98 78.57 425.9 76.75C425.84 75.52 425.2 75.3 424.9 74.24C424.24 71.9 425.52 69.11 424.89 66.79C424.71 66.15 424.09 65.9 423.9 65.24C423.27 63.05 424.31 60.47 424.01 58.25C423.88 57.32 423.15 57.09 422.9 56.24C422.4 54.52 423.36 52.5 422.89 50.79C422.72 50.15 422.09 49.9 421.9 49.24C421.18 46.72 422.5 43.78 422.08 41.25C421.68 38.83 420.75 38.66 421 35.25C419.19 35.67 418.12 38.6 416.71 40.01C411.83 44.9 408.58 51.13 403.71 56.01C401.05 58.67 398.59 61.85 396.7 65.03C395.71 66.69 393.44 67.57 392.42 69.2C388.73 75.13 383.24 80.01 379.7 86.02C378.95 87.29 377.21 87.97 376.43 89.22C371.57 96.92 364.35 103.19 359.7 111.02C358.94 112.3 357.22 112.98 356.43 114.22C353.94 118.15 350.01 121.54 347.95 125.68C347.17 127.23 344.6 128.09 344.19 129.79C343.64 132.04 346.31 133.61 347.7 135.01C350.18 137.51 359.18 144.97 359.02 147.97C353.5 142.23 347.98 136.49 342.46 130.75C368.57 98.25 394.67 65.75 420.78 33.25C422.97 34.91 422.13 38.71 422.46 41.25C423.54 49.51 424.22 57.97 425.66 66.16C426.31 69.88 427.47 74.73 427.25 78.48C426.77 86.29 424.06 94.58 422.49 102.27C419.23 118.2 415.54 134.68 413.44 150.74C412.51 157.81 407.73 171.88 408.45 178.25C408.84 181.74 413.85 183.87 414.98 187.03ZM387.99 46.99C387.32 47.65 386.65 48.32 385.98 48.98C385.98 48.41 385.97 47.83 385.96 47.25C386.64 47.16 387.31 47.08 387.99 46.99ZM385.98 48.98C383.31 51.65 380.64 54.31 377.97 56.97C377.85 54.24 383.26 48.83 385.98 48.98ZM377.97 56.97C371.97 62.96 365.96 68.96 359.96 74.95C359.9 71.89 370.31 62.89 372.98 60.28C374.53 58.77 375.69 56.87 377.97 56.97ZM133.01 58.99C135.12 58.86 136.14 59.87 136.02 61.98C135.02 60.98 134.01 59.99 133.01 58.99ZM136.02 61.98C136.69 62.07 137.37 62.16 138.04 62.25C138.03 62.83 138.03 63.4 138.02 63.98C137.35 63.32 136.68 62.65 136.02 61.98ZM138.02 63.98C140.55 63.84 144.15 67.44 144.03 69.97C142.02 67.98 140.02 65.98 138.02 63.98ZM144.03 69.97C144.7 70.06 145.37 70.16 146.04 70.25C146.03 70.83 146.03 71.4 146.02 71.98C145.36 71.31 144.69 70.64 144.03 69.97ZM146.02 71.98C146.6 71.97 147.17 71.97 147.75 71.96C147.86 72.63 147.98 73.31 148.09 73.98C147.4 73.31 146.71 72.64 146.02 71.98ZM149.02 74.91C149.6 74.93 150.17 74.95 150.75 74.96C150.84 75.64 150.93 76.31 151.01 76.99C150.35 76.3 149.69 75.6 149.02 74.91ZM359.96 74.95C346.95 87.95 333.95 100.96 320.94 113.96C320.9 110.62 326.28 107.06 328.55 104.74C335.81 97.33 343.28 90.14 350.55 82.74C352.82 80.44 356.65 74.89 359.96 74.95ZM151.01 76.99C153.74 76.82 159.17 82.26 159.02 84.98C156.35 82.32 153.68 79.65 151.01 76.99ZM123.99 78.01C125.65 80.03 127.31 82.05 128.97 84.06C128.4 84.06 127.82 84.05 127.25 84.04C126.45 81.71 123.85 80.53 123.99 78.01ZM128.97 84.06C141.37 99.63 153.78 115.19 166.18 130.75C165.11 131.82 164.04 132.9 162.97 133.97C162.9 132.28 163.33 131.77 164.75 131C163.57 126.18 157.78 123.2 155.3 119.02C150.66 111.22 143.47 104.91 138.56 97.24C136.32 93.72 128.91 88.21 128.97 84.06ZM159.02 84.98C161.44 84.85 164.16 87.57 164.01 89.99C162.35 88.32 160.68 86.65 159.02 84.98ZM164.01 89.99C167.13 89.8 167.71 92.65 169.26 94.56C169.83 95.25 171.12 94.99 171.7 95.97C172.76 97.76 177.03 102.58 179.04 103.25C179.47 105.8 188.13 114.37 190.75 113.99C191.66 113.86 191.92 113.16 192.77 112.95C195.78 112.2 198.8 111.68 201.76 110.91C203.18 110.53 204.79 111.37 206.22 110.94C215.53 108.14 225.31 106.49 234.76 103.91C235.87 103.61 237.1 104.17 238.21 103.87C241.67 102.95 245.28 101.84 248.76 100.91C251 100.3 252.66 101.22 254.75 99.96C256.33 101.69 258.22 100.37 260.24 100.91C263.72 101.84 267.32 102.95 270.79 103.87C271.9 104.16 273.13 103.61 274.24 103.91C284 106.58 294.15 108.06 303.79 110.93C304.9 111.26 306.13 110.65 307.24 110.93C310.64 111.78 317.56 114.06 320.94 113.96C319.22 116.05 311.93 113.17 309.36 112.78C297.21 110.91 285.08 107.77 273.01 105.26C267.01 104.01 260.39 101.77 254.25 101.8C249.37 101.83 244.05 103.55 239.31 104.65C232.6 106.21 225.75 107.34 219.01 108.74C212.09 110.17 205.19 111.67 198.27 113.09C195.58 113.64 191.53 115.38 188.82 114.84C186.59 114.4 184.02 110.84 182.49 109.26C177.98 104.61 173.42 99.99 168.82 95.42C167.24 93.85 164.7 92.02 164.01 89.99ZM162.97 133.97C161.81 137.36 157.11 140.71 154.61 143.37C148.16 150.25 141.79 157.21 135.26 164.01C132.79 166.58 129.14 171.84 125.91 172.99C125.93 169.4 132.08 165.25 134.55 162.75C141.06 156.15 146.79 149.6 153.3 143C155.59 140.67 160.42 137.5 160.96 134.25C161.63 134.16 162.3 134.07 162.97 133.97ZM359.02 147.97C361.35 148.84 372.08 159.7 372.05 161.95C367.71 157.29 363.36 152.63 359.02 147.97ZM372.05 161.95C374.15 161.91 375.13 162.89 375.02 164.98C374.03 163.97 373.04 162.96 372.05 161.95ZM375.02 164.98C378.63 166.3 385.4 174.63 388.45 177.74C390.03 179.35 392.14 180.6 392.02 182.98C386.36 176.98 380.69 170.98 375.02 164.98ZM124.99 173.91C119.63 179.59 114.28 185.27 108.92 190.95C108.93 188.58 110.98 187.35 112.56 185.75C116.04 182.23 120.56 175.87 124.99 173.91ZM392.02 182.98C394.13 182.87 395.14 183.88 395.01 185.99C394.02 184.98 393.02 183.98 392.02 182.98ZM395.01 185.99C398.44 187.21 404.82 195.04 407.71 197.98C409.24 199.54 411.07 200.69 411.09 202.98C405.73 197.31 400.37 191.65 395.01 185.99ZM106.99 192.9C105.19 198.28 96.27 202.9 93.44 208.17C92.52 209.87 92.2 211.98 91.58 213.8C90.91 215.79 89.73 218.21 90.25 220.27C97.58 223.12 104.92 225.97 112.25 228.82C113.22 226.53 112.06 222.88 114.61 221.34C117.83 219.4 128.21 220.62 132.25 220.62C147.42 220.62 162.58 220.62 177.75 220.62C189.25 220.62 200.75 220.57 212.25 220.58C217.75 220.59 224.03 219.76 229.43 220.77C236.67 222.12 241.03 231.22 248.75 231.35C252.96 231.42 259.63 232.55 263.51 230.73C268.6 228.36 273.21 221.59 278.86 220.68C284.99 219.69 292.03 220.62 298.25 220.62C311.42 220.62 324.58 220.65 337.75 220.59C351.25 220.53 364.75 220.63 378.25 220.6C382.37 220.59 390.36 218.96 393.88 221.39C396.38 223.11 394.87 226.88 396.25 229.03C403.75 225.95 411.25 222.88 418.75 219.8C418.44 216.48 416.68 210.68 414.85 207.88C413.92 206.45 412.49 205.48 412 203.91C415.05 205.24 417.31 208.76 418.09 211.76C418.33 212.67 417.89 213.64 418.26 214.55C419.08 216.58 420.17 218.41 420.01 220.75C411.76 224.18 403.5 227.6 395.25 231.03C393.05 228.62 394.05 225.34 393.73 222.25C385.59 221.07 376.5 222.13 368.25 222.13C351.42 222.14 334.58 222.13 317.75 222.13C308.58 222.13 299.42 222.13 290.25 222.13C286.47 222.13 281.44 221.24 277.79 222.16C276.86 222.39 276.5 223.51 275.67 223.94C270.88 226.38 266.25 232.25 260.75 233.14C258.19 233.56 248.55 233.82 246.33 232.95C241.53 231.07 237.03 226.36 232.32 223.95C231.5 223.52 231.12 222.41 230.21 222.17C226.01 221.07 220.11 222.13 215.75 222.13C204.92 222.13 194.08 222.14 183.25 222.13C167.25 222.12 151.25 222.13 135.25 222.13C131.56 222.13 118.06 221.15 115.46 222.28C113.16 223.29 114.15 227.77 114.02 229.75C110.8 230.64 109.94 228.89 107.21 228.15C100.57 226.34 94.5 223.03 87.96 220.75C88.17 217.37 90.75 210.67 92.05 207.32C92.56 206 94.74 204.54 95.75 203.55C99.02 200.37 102.91 194.73 106.99 192.9ZM137.97 280.02C142.5 281.39 145.08 288.88 149.81 289.83C153.79 290.64 158.68 289.89 162.75 289.88C172.92 289.86 183.08 289.86 193.25 289.86C198.32 289.86 207.96 291.17 212.51 289.73C214.81 289 219.35 281.47 221.04 279.32C224.42 275.05 229.95 269.71 231.76 264.54C233.58 259.31 234.78 253.69 236.16 248.33C237.22 244.24 238.9 239.64 237.86 235.29C237.44 233.51 234.12 232.05 232.69 231.06C225.48 226.06 219.33 227.82 210.75 227.82C190.25 227.81 169.75 227.84 149.25 227.83C142.25 227.83 126.14 226.48 120.25 228.23C118.39 239.61 123.15 250.77 127.17 261.11C128.61 264.8 129.18 269.16 131.17 272.6C132.81 275.46 136.81 277.07 137.97 280.02C134.93 280.18 130.05 274.39 129.05 271.68C128.66 270.61 129.22 269.48 128.79 268.44C127.93 266.37 126.44 264.44 125.91 262.24C125.71 261.43 126.16 260.58 125.96 259.78C125.69 258.72 124.45 257.71 124.05 256.67C123.03 254 122.84 251.09 121.77 248.44C120.85 246.16 119.57 243.65 118.92 241.24C118.22 238.62 118.55 229.58 119.25 226.99C149.56 226.58 179.93 226.97 210.25 226.99C214.17 227 226.75 225.96 229.67 227.05C230.83 227.49 231.36 229.18 232.44 229.75C234.34 230.76 238.42 232.34 239.06 234.77C240.39 239.85 238.25 244.54 237.15 248.79C236.33 251.97 235.9 255.07 235.08 258.24C234.69 259.76 233.54 261.28 233.14 262.79C232.89 263.74 233.31 264.74 232.95 265.67C231.6 269.1 224.66 275.67 222.43 279.22C221.49 280.73 214.68 290.55 213.67 290.95C210.94 292.02 206.2 291.11 203.25 291.11C194.92 291.12 186.58 291.11 178.25 291.11C171.25 291.12 164.25 291.11 157.25 291.11C154.71 291.11 150.69 291.88 148.32 290.95C146.79 290.35 138.5 281.44 137.97 280.02ZM274.98 230.99C274.09 232.57 271.36 233.1 270.72 234.91C269.07 239.6 271.51 245.99 272.75 250.48C274.12 255.43 274.95 260.93 277.24 265.55C279.49 270.1 283.56 274.1 286.58 278.15C288.33 280.49 293.56 288.9 295.96 289.74C299.84 291.09 306.14 289.88 310.25 289.88C320.92 289.87 331.58 289.86 342.25 289.86C346.59 289.86 355.64 291.05 359.44 289.69C362.7 288.52 366.27 283.42 368.81 281.05C371.54 278.51 375.11 276.05 377.16 272.9C379.53 269.24 380.33 263.72 381.79 259.59C385.28 249.78 390.54 238.91 388.09 228.25C382.91 226.54 361.19 227.85 354.25 227.84C337.92 227.83 321.58 227.85 305.25 227.83C297.41 227.81 288.47 226.61 280.75 227.9C278.51 228.27 277.06 230.48 274.98 230.99C275.63 229.14 277.83 227.43 279.77 226.97C284.36 225.87 296.83 227 302.25 226.99C331.05 226.96 359.97 226.27 388.75 227.03C389.22 228.1 389.69 229.18 390.16 230.25C387.39 234.04 390.19 239.01 389.1 243.24C388.48 245.62 385.78 250.37 385.11 252.79C383.3 259.33 381.5 266.3 378.94 272.67C377.91 275.25 373.4 278.2 371.44 280.23C368.1 283.67 364.1 289.21 359.66 290.93C356.64 292.1 351.49 291.11 348.25 291.11C339.25 291.11 330.25 291.11 321.25 291.11C313.23 291.11 304.17 292.31 296.25 291.11C292.56 290.55 290.23 284.82 288.59 282.19C287.81 280.95 286.06 280.29 285.3 279.02C283.26 275.63 280.69 272.56 278.57 269.22C277.98 268.28 276.46 267.74 276.05 266.68C273.52 260.17 272.52 253.11 270.06 246.67C269.7 245.73 270.1 244.74 269.85 243.79C268.63 239.17 267.51 230.71 274.98 230.99ZM105.02 236C99.11 233.91 93.2 231.83 87.29 229.75C75.45 268.75 63.61 307.75 51.77 346.75C55.46 346.74 60.28 343.05 63.64 341.39C72.12 337.22 80.49 332.83 89 328.74C92.23 327.18 96.76 323.52 100.36 323.24C101.98 323.12 114.24 331.59 114.98 333.01C111.22 333.17 104.31 325.22 100 324.25C83.42 332.51 66.83 340.78 50.25 349.04C49.26 345.71 52.1 342.31 52.89 339.21C53.1 338.42 52.7 337.56 52.91 336.76C54.44 330.81 57.22 325.1 58.9 319.21C61.97 308.44 64.97 297.65 67.9 286.76C68.24 285.5 69.62 284.42 69.94 283.22C70.22 282.12 69.6 280.88 69.9 279.76C71.77 272.84 75.08 266.14 76.83 259.21C78.51 252.58 80.21 245.85 82.72 239.53C84.4 235.29 84.08 231.62 87.25 227.97C89.78 229.5 92.93 230.02 95.68 231.05C97.33 231.67 98.82 233.17 100.42 233.82C102.12 234.51 104.25 234.11 105.02 236ZM398.04 330.02C398.89 328.58 400.9 327.55 402.35 326.59C410.2 321.4 410.21 323.76 418.29 327.96C426.98 332.49 435.85 336.8 444.65 341.11C448.01 342.76 452.66 346.45 456.36 346.75C444.66 307.72 432.95 268.69 421.25 229.66C415.43 230.71 409.62 234.23 404.08 236.3C401.96 237.09 397.88 237.89 396.3 239.53C395.02 240.86 393.6 247.93 392.82 250.12C389.76 258.71 387.45 267.79 383.83 276.11C382.17 279.95 367.23 293.29 363.33 296.07C360.11 298.35 348.08 297.03 343.75 297.03C326.26 297.03 308.59 297.01 291.25 296.54C289.15 306.24 291.5 324.11 286.73 332.48C282.79 339.38 275.9 336.79 271.46 340.22C266.98 343.69 268.91 347.55 267.48 352.22C266.46 355.51 262.81 357.46 261.28 360.5C259.77 363.49 260.01 370.66 260.96 373.75C271.97 378.17 282.98 382.59 293.99 387.01C290.44 387.07 288.38 384.97 285.22 384.1C278.76 382.31 272.79 379.73 266.55 377.26C264.66 376.51 260 375.96 259.05 373.67C258.43 372.18 258.85 369.86 258.85 368.25C258.85 357.06 262.88 359.8 265.69 352.52C267.05 349.01 266.15 344.51 268.3 340.97C270.21 337.82 273.35 338.67 276.21 337.88C280.78 336.62 284.91 334 286.75 329.54C288.18 326.07 286.91 322.33 287.9 318.76C288.2 317.71 288.92 317.46 289.02 316.25C289.26 313.29 288.08 309.62 288.9 306.76C289.15 305.92 289.87 305.65 290.04 304.75C290.63 301.56 289.4 298.14 290.25 295C292.07 294.88 292.7 295.7 294.25 295.92C296.48 296.24 298.99 295.93 301.25 295.93C314.75 295.94 328.25 295.93 341.75 295.93C347.01 295.93 356.42 297.22 361.21 295.85C362.16 295.58 363.62 294.23 364.56 293.75C367.33 292.33 370.1 288.22 372.28 285.98C374.72 283.48 381.47 278.35 382.71 275.53C383.43 273.91 383.41 271.99 384.05 270.32C384.41 269.37 385.37 268.48 385.74 267.55C388.47 260.69 390 253.38 392.72 246.54C393.5 244.57 393.25 242.24 394.05 240.33C395.15 237.71 398.52 237.6 400.56 236.78C404.87 235.05 418.03 228.16 421.75 227.97C424.66 231.24 425.14 237.11 426.17 241.21C427.07 244.77 429.15 248.19 430.1 251.76C430.67 253.92 430.6 256.05 431.15 258.21C432.31 262.79 434.87 267.16 436.1 271.76C440.26 287.4 445.09 302.66 449.11 318.21C449.5 319.71 450.71 321.24 451.08 322.76C452.36 327.96 453.59 333.06 455.08 338.21C456.09 341.71 458.87 345.14 457.75 349.04C441.08 340.69 424.42 332.35 407.75 324C405.86 325.69 400.35 330.08 398.04 330.02ZM140.06 277.92C144.92 277.96 147.4 286.06 152.25 287.06C155.76 287.79 160.16 287.08 163.75 287.08C173.58 287.08 183.42 287.08 193.25 287.09C197.44 287.09 206.58 288.28 210.21 286.97C212.3 286.22 217.12 278.97 218.3 276.98C220.65 273.06 227 267.45 228.78 263.56C229.19 262.66 228.68 261.68 228.92 260.76C229.31 259.24 230.52 257.71 230.91 256.21C231.12 255.42 230.71 254.56 230.91 253.76C232.46 247.62 235.01 243.7 235.05 236.75C234.26 236.19 227.78 231.35 227.56 231.25C225.47 230.33 221.52 231.1 219.25 231.1C212.58 231.11 205.92 231.1 199.25 231.1C182.42 231.1 165.58 231.11 148.75 231.11C140.53 231.11 131.5 230.05 123.38 231.25C122.13 237.32 124.5 241.44 126.09 246.76C128.27 254.06 130.48 261.41 133.29 268.53C134.41 271.35 136.89 273.35 138.09 275.97C133.71 274.48 132.14 269.34 130.82 265.36C128 256.81 119.01 238.68 122.49 230.25C129 228.37 142.93 229.84 150.25 229.84C169.92 229.84 189.58 229.85 209.25 229.85C216.66 229.84 224.9 228.29 231.17 232.57C232.46 233.45 235.07 234.71 235.49 236.27C236.68 240.74 234.61 245.1 233.62 249.32C232.45 254.32 231.41 260.22 229.14 264.87C226.93 269.38 222.76 273.47 219.72 277.46C218.19 279.47 214.04 286.44 212.04 287.27C209.27 288.43 204.27 287.49 201.25 287.49C192.92 287.48 184.58 287.51 176.25 287.51C169.49 287.51 156.28 288.74 150.28 287.45C148.51 287.07 140.74 279.55 140.06 277.92ZM361.9 283.99C364.15 278.97 371.08 276.38 373.7 271.53C376.75 265.89 377.77 259.22 380.05 253.33C382.77 246.34 386.22 239.34 384.58 231.25C375.68 229.95 365.76 231.1 356.75 231.11C338.08 231.11 319.42 231.12 300.75 231.11C296.86 231.1 284.39 230.1 281.47 231.29C279.58 232.05 278.7 233.68 277.03 234.7C276.12 235.25 274.79 235.31 274.3 236.47C271.87 242.21 276.6 251.65 278.08 256.76C278.59 258.56 278.5 260.85 279.22 262.56C281.29 267.52 288.79 274.12 291.7 278.98C292.69 280.66 296 286.36 297.78 286.98C301.65 288.31 310.84 287.09 315.25 287.09C328.04 287.08 343.83 288.41 356.25 287.09C357.75 286.93 358.34 285.93 359.92 285.93C358.84 288.47 354.62 287.5 352.25 287.52C344.58 287.58 336.92 287.51 329.25 287.51C321.58 287.51 313.92 287.52 306.25 287.49C303.53 287.48 299.03 288.34 296.53 287.22C293.52 285.87 290.76 280.1 288.71 277.54C285.5 273.51 280.75 268.74 278.78 263.96C276.77 259.06 275.7 253.49 274.34 248.38C273.39 244.81 271.43 240.14 272.72 236.42C273.14 235.21 274.82 234.27 275.81 233.55C277.3 232.47 279.08 230.69 280.84 230.11C285.3 228.65 294.31 229.84 299.25 229.84C318.92 229.85 338.58 229.8 358.25 229.84C365.77 229.85 378.95 228.42 385.75 230.24C387.25 235.36 385.9 241.09 384.2 245.89C381.8 252.68 378.56 266.66 374.93 272.16C373.35 274.55 370.69 276.42 368.6 278.34C366.64 280.15 364.38 283.23 361.9 283.99ZM105.02 236C107.12 235.96 112.98 236.91 113.94 239.33C114.47 240.67 113.71 242.23 114.24 243.56C115.7 247.2 117.56 250.65 118.95 254.32C120.07 257.27 120.08 260.58 121.26 263.55C121.63 264.48 122.59 265.37 122.95 266.32C124.23 269.68 124.54 273.33 126.27 276.54C128.25 280.2 138.08 285.85 138.06 288.96C135.68 287.84 133.65 285.32 131.74 283.5C129.65 281.52 126.74 279.51 125.25 277.03C120.58 269.31 118.37 257.7 115.22 249.08C114.37 246.77 113.53 241.53 112.46 239.83C111.14 237.75 106.88 237.49 105.02 236ZM281.75 325.04C277.98 325.22 275.8 322.47 271.25 323.05C269.28 323.3 267.14 324.57 265.24 325.09C263.67 325.52 261.84 324.76 260.25 325C259.34 325.14 259.08 325.85 258.24 326.08C256.52 326.56 253.02 326.39 251.25 326.13C250.29 325.99 250.03 325.32 249.21 325.08C246.49 324.3 243.49 324.78 240.76 324.07C239.91 323.85 239.68 323.12 238.75 323C233.85 322.36 230.97 325.27 227.25 324.99C226.92 323.58 226.27 322.52 225.9 321.24C224.76 317.23 226.67 312.36 225.99 308.25C225.84 307.35 225.14 307.08 224.9 306.24C224.41 304.51 224.54 285.92 225.09 284.34C226.6 279.95 234.26 273.06 236.75 268.56C238.82 264.82 238.86 260.78 239.91 256.76C240.83 253.24 242.79 250.05 242.96 246.25C245.63 245.35 248.1 243.62 250.76 242.9C253.17 242.26 256.42 242.93 258.45 243.74C260.21 244.44 262.37 244.36 264.02 245.3C265.71 246.26 265.67 249.04 266.27 250.54C268.45 255.97 269.09 262.03 271.26 267.54C272.65 271.05 279 277.93 281.43 281.78C282.02 282.72 283.53 283.26 283.95 284.33C284.86 286.66 284.8 293.8 284.1 296.24C283.86 297.08 283.15 297.35 283 298.25C282.2 302.94 283.92 308.04 283.15 312.75C282.94 313.98 282.07 314.45 281.98 315.75C281.77 318.83 282.63 322.08 281.75 325.04ZM279.75 323.69C281.5 321.54 281.26 317.06 281.39 314.25C281.68 307.75 282.01 301.24 282.44 294.75C282.63 291.98 283.66 287.81 282.57 285.2C279.85 278.69 272.58 274.34 270.12 267.66C268.28 262.68 266.46 251.12 264.26 247.51C262.86 245.23 256.71 244.04 254.25 244.05C251.81 244.07 246.47 245.19 244.7 246.95C242.58 249.05 239.82 263.62 238.29 267.57C235.81 273.95 228.5 278.86 226.12 284.85C225.01 287.66 225.96 292.25 226.06 295.25C226.3 302.46 225.87 317.48 228.22 323.75C230.67 323.5 232.56 321.59 235.25 321.63C241.77 321.74 248.1 325.05 254.75 324.92C264.72 324.73 269.99 319.93 279.75 323.69ZM138.06 288.96C142.25 288.9 143.49 295.45 147.25 295.94C153.18 296.71 159.76 295.92 165.75 295.93C182.46 295.95 199.31 295.37 215.99 295.99C214.76 297.82 199.88 297.04 196.75 297.04C184.42 297.04 172.08 297.04 159.75 297.04C150.76 297.04 143.17 298.13 138.06 288.96ZM192.96 387.02C196.01 387.65 198.53 391.75 201.75 391.67C206.07 391.57 211.74 388.09 215.76 386.54C226.27 382.51 237.39 379.13 247.5 374.25C248.23 372.11 248.44 362.32 247.31 360.43C245.66 357.67 242.2 355.74 240.99 352.73C239.23 348.31 241.75 343.96 237.27 340.49C232.51 336.79 225.65 338.73 221.77 332.97C219.02 328.89 219.45 323.42 219.07 318.75C218.46 311.43 217.62 304.1 217.45 296.75C216.96 296.5 216.47 296.24 215.99 295.99C216.41 295.64 216.83 295.28 217.25 294.93C219.83 297.95 219.1 303.18 219.04 307.25C218.97 311.12 219.71 311.44 220.14 314.25C220.62 317.39 219.11 321.17 220.06 324.21C220.27 324.85 220.9 325.08 221.09 325.76C221.42 326.99 220.72 328.35 221.23 329.55C224.95 338.27 231.93 335.65 238.01 339.31C244.12 342.98 240.29 347.95 242.28 352.54C243.54 355.44 247.74 357.36 248.94 360.33C250.04 363.03 249.23 371.58 249.02 374.75C245.69 375.74 242.84 377.74 239.67 378.94C235.35 380.57 230.7 381.47 226.43 383.2C223.79 384.27 221.35 385.95 218.67 386.94C216.97 387.57 215.1 387.52 213.43 388.21C211.82 388.87 210.33 390.33 208.68 390.95C205.31 392.21 201.67 393.68 198.33 391.95C197.6 391.57 197.25 390.65 196.54 390.28C194.9 389.39 193.66 388.88 192.96 387.02ZM398.04 330.02C396.99 332.83 393.55 333.94 391.22 335.43C390.24 336.05 389.73 337.41 388.68 337.95C381.49 341.63 375.55 347.44 368.45 351.26C365.34 352.93 362.87 357.12 359.04 357.03C372.04 348.03 385.04 339.02 398.04 330.02ZM114.98 333.01C126.98 341.35 138.97 349.69 150.96 358.03C147.66 358.19 144.36 353.81 141.54 352.28C135.49 349 130.45 344.1 124.32 340.95C123.27 340.41 122.76 339.05 121.78 338.43C119.47 336.95 115.95 335.83 114.98 333.01ZM205.01 416.99C202.84 416.04 201.16 413.03 199.55 411.21C195.65 406.8 192.06 402.86 187.17 399.53C167.63 386.23 148.13 372.87 128.43 359.81C120.43 354.51 112.64 348.87 104.56 343.7C101.79 341.92 99.27 339.67 96.25 338.32C107.25 376.5 118.25 414.67 129.25 452.84C133.84 447.23 138.42 441.62 143.01 436.02C143.15 439.01 139.95 440.9 138.44 443.24C135.82 447.3 133.01 451.36 129.75 455.03C126.62 453.2 127.73 450.7 126.95 447.78C126.28 445.26 124.54 442.81 123.91 440.24C123.17 437.26 122.92 434.37 121.75 431.45C120.31 427.89 119.86 424.5 118.9 420.79C118.25 418.26 116.56 415.8 115.91 413.24C115.11 410.07 114.73 406.96 113.9 403.79C113.51 402.28 112.3 400.76 111.93 399.24C108.93 387 104.99 375.12 101.86 362.79C101.48 361.28 100.31 359.76 99.91 358.24C98.57 353.04 97.29 347.98 95.83 342.79C95.16 340.42 93.44 337.96 95.25 335.96C105.61 342.15 114.91 350.49 125.68 356.05C129.91 358.24 133.43 361.85 137.68 364.05C142.87 366.74 147.21 371.18 152.68 374.05C153.8 374.64 154.34 376.14 155.45 376.74C161.11 379.77 165.97 384.08 171.68 387.05C174.81 388.68 177.27 391.68 180.23 393.57C187.05 397.94 196.25 402.89 200.26 410.56C201.59 413.1 205.19 413.76 205.01 416.99ZM375.98 450.03C377.07 450.97 378.16 451.91 379.25 452.85C390.25 414.74 401.25 376.64 412.25 338.53C407.16 341.68 402.08 344.84 396.99 347.99C397.62 346.08 411.68 336.09 413.75 335.96C414.82 339.58 410.17 349.79 409.14 353.79C406.84 362.68 404.34 371.4 402.09 380.24C401.44 382.79 399.77 385.25 399.09 387.79C398.87 388.59 399.27 389.44 399.07 390.24C398.11 394.12 396.1 397.93 395.07 401.78C394.1 405.41 393.65 409.03 392.26 412.46C391.84 413.49 392.36 414.63 391.95 415.68C391.07 417.95 389.71 420.43 389.11 422.79C388.87 423.74 389.33 424.72 388.95 425.67C388.44 426.98 387.41 428.45 387.06 429.79C386.3 432.71 387.35 433.52 384.82 435.75C385.18 438.05 381.24 453.41 379.75 455.03C377.94 453.95 375.9 452.24 375.98 450.03ZM396.99 347.99C395.06 351.27 388.73 354.07 385.47 356.24C376.9 361.98 368.4 367.89 359.73 373.49C345.77 382.52 329.3 392.85 316.49 403.24C307.57 410.48 302.45 422.18 293.04 428.78C286.16 433.62 270.37 436.61 261.9 438.7C251.31 441.32 240.79 437.14 230.56 434.24C225.11 432.69 219.54 431.76 214.86 428.4C211.68 426.12 206.04 420.69 205.01 416.99C209.7 418.6 212.89 427.13 219.46 429.72C225.81 432.21 232.7 433.18 239.24 434.91C240.77 435.31 242.28 436.47 243.79 436.87C246.56 437.6 249.47 437.16 252.24 437.9C253.29 438.19 253.54 438.88 254.75 438.94C257.43 439.06 263.02 436.64 265.76 435.9C274.68 433.49 284.18 432.24 292.54 427.72C295.25 426.25 297.83 422.41 299.3 419.97C300.53 417.91 303.29 416.79 304.57 414.77C306.52 411.67 309.06 409.22 311.79 406.58C312.99 405.41 313.71 403.06 314.97 402.3C323.01 397.41 330.28 391.17 338.55 386.74C339.66 386.14 340.19 384.63 341.32 384.05C345.95 381.66 349.97 378.22 354.55 375.73C359.8 372.88 364.28 368.58 369.55 365.74C370.66 365.15 371.19 363.64 372.32 363.05C377.62 360.28 382.32 356.53 387.56 353.74C390.77 352.03 392.93 347.83 396.99 347.99ZM359.04 357.03C357.97 359.84 348.16 365.55 345.23 367.43C343.29 368.69 341.44 371.13 339.01 371.01C345.69 366.35 352.37 361.69 359.04 357.03ZM150.96 358.03C151.97 358.69 152.97 359.35 153.97 360.02C152.27 360.09 151.51 359.54 150.96 358.03ZM153.97 360.02C159.31 363.68 164.64 367.35 169.98 371.01C167.83 371.1 154.72 362.17 153.97 360.02ZM169.98 371.01C174.31 374.02 178.64 377.02 182.97 380.02C180.52 380.1 170.77 373.28 169.98 371.01ZM339.01 371.01C338.59 371.68 338.17 372.36 337.75 373.03C337.18 373.03 336.6 373.02 336.03 373.02C337.02 372.35 338.02 371.68 339.01 371.01ZM336.03 373.02C335.6 373.69 335.18 374.35 334.75 375.02C334.19 375.02 333.62 375.03 333.06 375.03C334.05 374.36 335.04 373.69 336.03 373.02ZM333.06 375.03C332.17 377.23 328.33 380.12 326.01 380.01C328.36 378.35 330.71 376.69 333.06 375.03ZM182.97 380.02C186.3 382.35 189.63 384.69 192.96 387.02C190.84 387.1 183.73 382.11 182.97 380.02ZM326.01 380.01C325.31 382.09 318.16 387.09 316.04 387.03C319.37 384.69 322.69 382.35 326.01 380.01ZM218.92 413.06C221.7 414.22 223.01 417.64 226.11 418.67C234.36 421.43 247.09 425.08 255.71 424.78C261.47 424.58 267.3 422.64 272.83 421.12C276.51 420.11 281.14 419.77 284.38 417.64C288.47 414.92 296.49 405.52 298.95 401.25C295.76 398.08 285.46 395.69 280.89 393.84C276.11 391.9 258.65 384.36 254.74 384.04C251.63 383.78 247.11 386.82 244.21 387.9C235.97 390.95 227.56 393.81 219.47 397.23C216.36 398.55 212.28 399.12 209.64 401.25C212.43 404.87 215.21 408.48 218 412.1C215.27 410.94 208.13 402.92 207.98 400.25C216.14 398.31 223.48 393.98 231.33 391.05C235.67 389.44 240.27 388.45 244.56 386.76C247.3 385.68 250.3 383.31 253.25 382.9C257.59 382.3 260.95 385.84 264.78 386.88C277.24 390.26 288.87 396.02 301.04 400.25C297.81 405.76 293.03 410.61 288.43 415.23C287.17 416.5 285.32 419.28 283.68 419.95C281.39 420.89 279.12 420.52 276.79 421.13C275.29 421.52 273.77 422.68 272.24 423.1C261.42 426.05 250.25 427.53 239.53 423.28C238.35 422.81 236.97 423.43 235.76 423.1C234.23 422.68 232.72 421.55 231.21 421.17C227.31 420.17 218.94 418.83 218.92 413.06ZM293.99 387.01C298.49 387.45 303.21 391.88 307.75 391.6C310.77 391.41 313.12 387.68 316.04 387.03C315.33 388.87 314.09 389.39 312.46 390.28C311.75 390.65 311.4 391.57 310.68 391.95C306.65 394.04 304.26 391.71 300.55 390.25C298.54 389.46 294.86 389.14 293.99 387.01ZM162.97 428.02C159.91 428.18 157.56 423.91 155.25 422.12C153.17 424.08 151.09 426.05 149.01 428.02C149.56 425.71 152.56 421.62 154.75 420.56C157.49 423.05 160.23 425.54 162.97 428.02ZM357.99 426.02C356.36 425.45 355.09 424.1 354.75 422.3C353.17 422.87 351.6 423.44 350.02 424.01C351.26 422.87 352.51 421.72 353.75 420.58C355.16 422.39 356.57 424.21 357.99 426.02ZM350.02 424.01C348.33 428.76 341.69 431.8 338.43 435.21C336.84 436.87 335.44 439.06 333.04 439.09C338.7 434.06 344.36 429.04 350.02 424.01ZM357.99 426.02C360.99 430.02 363.99 434.02 366.99 438.02C364.77 437.25 357.88 428.09 357.99 426.02ZM149.01 428.02C149.14 430.29 145.15 435.29 143.01 436.02C145.01 433.35 147.01 430.68 149.01 428.02ZM162.97 428.02C168.97 433.36 174.96 438.7 180.96 444.03C178.57 444.12 177.15 441.87 175.57 440.23C171.94 436.48 164.84 433.05 162.97 428.02ZM366.99 438.02C367.99 439.35 368.99 440.69 369.99 442.02C368.22 441.41 366.88 439.99 366.99 438.02ZM331.1 441.01C328.83 446.19 322.17 449.34 318.44 453.23C316.86 454.88 315.41 457.14 313.03 457.02C319.05 451.68 325.07 446.35 331.1 441.01ZM369.99 442.02C370.98 443.36 371.98 444.7 372.97 446.05C371.22 445.37 369.89 443.99 369.99 442.02ZM180.96 444.03C184.3 447.05 187.64 450.07 190.97 453.09C186.74 453.06 185.3 446.72 181.25 446.04C181.15 445.37 181.06 444.7 180.96 444.03ZM372.97 446.05C373.97 447.38 374.98 448.7 375.98 450.03C374.24 449.39 372.91 448 372.97 446.05ZM191.9 454.03C197.59 459.05 203.27 464.07 208.95 469.09C206.31 469.08 204.57 466.2 202.78 464.43C199.55 461.22 193.91 458.5 191.9 454.03ZM313.03 457.02C312.09 459.51 306.8 465.05 304.06 465.09C307.05 462.4 310.04 459.71 313.03 457.02ZM303.1 466.01C300.68 471.5 293.46 475.04 289.43 479.23C287.85 480.87 286.42 483.13 284.03 483.03C290.39 477.36 296.74 471.68 303.1 466.01ZM209.9 470.02C213.26 473.02 216.61 476.02 219.97 479.03C217.07 479.17 211.04 472.63 209.9 470.02ZM219.97 479.03C225.97 484.36 231.97 489.69 237.97 495.02C235.59 495.15 234.15 492.87 232.56 491.23C228.96 487.52 221.87 484.09 219.97 479.03ZM284.03 483.03C284.04 483.6 284.04 484.18 284.04 484.75C280.61 485.9 278.7 491.07 275.04 491.09C278.03 488.4 281.03 485.71 284.03 483.03ZM274.09 492.01C272.94 494.65 266.94 501.18 264.01 501.01C267.37 498.01 270.73 495.01 274.09 492.01ZM237.97 495.02C240.97 497.71 243.97 500.4 246.96 503.09C244.21 503.06 238.89 497.51 237.97 495.02ZM264.01 501.01C263.54 502.38 256.73 509.71 255.24 510.08C252.78 510.69 248.75 505.96 247.9 504C250.02 505.61 252.13 507.22 254.25 508.83C257.5 506.22 260.76 503.62 264.01 501.01Z" fill="#545454" fill-rule="evenodd" stroke="#545454" stroke-width="0.25" stroke-linejoin="round"/>
</svg>