<?xml version="1.0" encoding="UTF-8"?>
<svg xmlns="http://www.w3.org/2000/svg" viewBox="0 0 512 512" width="512" height="512">
<path d="M428.18 84.96C428.37 84.76 428.56 84.55 428.75 84.35C429.38 84.98 430.02 85.62 430.65 86.25C430.44 86.44 430.22 86.63 430.01 86.81C437.07 94.2 444.13 101.59 451.19 108.98C451.67 109.07 452.16 109.16 452.65 109.25C452.43 109.44 452.22 109.62 452 109.81C452.63 112.19 455.5 114.19 457.24 116.02C460.41 119.35 470.87 131.76 474.18 132.96C474.37 132.76 474.56 132.55 474.75 132.35C475.72 133.32 476.68 134.28 477.65 135.25C477.43 135.44 477.22 135.62 477 135.81C484.03 143.17 491.06 150.53 498.08 157.89C502.09 162.23 506.09 166.56 510.09 170.89C510.14 173.54 511.04 175.69 509.59 178.33C508.37 180.56 505.71 181.82 505 184.19C505.22 184.38 505.43 184.56 505.65 184.75C504.43 185.58 503.22 186.42 502 187.25C502.35 188.89 502.51 188.32 501.25 189.65C500.91 189.45 500.56 189.25 500.22 189.05C494.81 194.77 489.41 200.48 484.01 206.19C484.22 206.38 484.44 206.56 484.65 206.75C484.02 207.38 483.38 208.02 482.75 208.65C482.56 208.44 482.38 208.23 482.19 208.02C478.47 209.31 471.59 218.48 468.47 221.71C466.9 223.34 464.56 225.06 464 227.19C464.22 227.38 464.43 227.56 464.65 227.75C464.02 228.38 463.38 229.02 462.75 229.65C462.56 229.44 462.37 229.23 462.19 229.02C447.15 244.72 432.12 260.41 417.09 276.11C410.42 283.11 403.75 290.1 397.08 297.1C396.1 298.11 395.11 299.12 394.13 300.13C389.09 305.49 384.04 310.84 379 316.19C379.22 316.38 379.43 316.56 379.65 316.75C378.43 317.58 377.22 318.42 376 319.25C376.35 320.89 376.51 320.32 375.25 321.65C374.91 321.45 374.56 321.25 374.22 321.05C369.15 326.43 364.09 331.81 359.02 337.18C359.23 337.37 359.44 337.56 359.65 337.75C359.16 337.85 358.67 337.94 358.18 338.04C352.12 344.42 346.06 350.81 340 357.19C340.22 357.38 340.43 357.56 340.65 357.75C340.02 358.38 339.38 359.02 338.75 359.65C338.56 359.45 338.37 359.24 338.18 359.04C331.48 366.06 324.79 373.09 318.09 380.11C317.1 381.12 316.12 382.13 315.14 383.14C309.43 389.16 303.71 395.17 298 401.19C298.22 401.38 298.43 401.56 298.65 401.75C298.02 402.38 297.38 403.02 296.75 403.65C296.56 403.44 296.37 403.23 296.18 403.03C295.17 404.06 294.15 405.1 293.13 406.13C287.76 411.82 282.38 417.5 277 423.19C277.22 423.38 277.43 423.56 277.65 423.75C277.02 424.38 276.38 425.02 275.75 425.65C275.56 425.44 275.38 425.22 275.19 425.01C274.17 426.05 273.15 427.09 272.13 428.14C266.68 429.83 264.62 438.25 258.46 439.71C255.46 440.43 253.42 438.57 250.81 438C250.62 438.22 250.44 438.43 250.25 438.65C249.28 437.68 248.32 436.72 247.35 435.75C247.56 435.56 247.77 435.37 247.98 435.18C241.94 428.84 235.89 422.5 229.85 416.15C228.84 415.11 227.83 414.07 226.81 413.02C226.33 412.93 225.84 412.84 225.35 412.75C225.56 412.56 225.78 412.38 225.99 412.19C218.6 404.47 211.21 396.75 203.81 389.03C203.63 389.24 203.44 389.44 203.25 389.65C202.62 389.02 201.98 388.38 201.35 387.75C201.56 387.56 201.78 387.38 201.99 387.19C194.63 379.5 187.27 371.8 179.91 364.11C173.88 357.75 167.85 351.39 161.81 345.03C161.63 345.23 161.44 345.44 161.25 345.65C160.62 345.02 159.98 344.38 159.35 343.75C159.56 343.56 159.77 343.37 159.98 343.19C152.63 335.49 145.27 327.8 137.91 320.11C132.22 314.09 126.52 308.06 120.82 302.04C120.33 301.94 119.84 301.85 119.35 301.75C119.56 301.56 119.77 301.37 119.97 301.18C113.92 294.81 107.87 288.43 101.82 282.05C101.63 282.25 101.44 282.45 101.25 282.65C100.62 282.02 99.98 281.38 99.35 280.75C99.56 280.56 99.77 280.37 99.99 280.19C93.94 273.84 87.9 267.5 81.85 261.15C80.84 260.11 79.82 259.06 78.81 258.01C78.32 257.92 77.84 257.84 77.35 257.75C77.57 257.56 77.78 257.38 78 257.19C71.6 250.47 65.21 243.74 58.81 237.02C58.63 237.23 58.44 237.44 58.25 237.65C57.62 237.02 56.98 236.38 56.35 235.75C56.56 235.56 56.78 235.38 56.99 235.19C50.3 228.16 43.61 221.14 36.91 214.11C30.21 207.08 23.51 200.05 16.81 193.02C16.62 193.23 16.44 193.44 16.25 193.65C15.62 193.02 14.98 192.38 14.35 191.75C14.56 191.56 14.78 191.38 14.99 191.19C13.06 184.91 2.91 182.22 2.96 174.75C2.98 171.72 5.24 170.33 5.99 167.81C5.78 167.62 5.56 167.44 5.35 167.25C5.98 166.62 6.62 165.98 7.25 165.35C7.44 165.56 7.63 165.76 7.82 165.97C11.43 164.69 21.24 152.76 24.55 149.31C26.32 147.46 29.27 145.17 29.99 142.81C29.78 142.63 29.56 142.44 29.35 142.25C29.98 141.62 30.62 140.98 31.25 140.35C31.44 140.56 31.62 140.77 31.81 140.99C46.21 125.93 60.6 110.87 75 95.81C74.78 95.62 74.57 95.44 74.35 95.25C74.84 95.16 75.33 95.06 75.81 94.97C81.61 92.94 91.67 75.81 97.18 74.34C102.09 73.03 120.04 74.26 126.22 74.26C148.9 74.25 171.57 74.29 194.25 74.27C245.58 74.22 296.92 74.25 348.25 74.26C363.92 74.26 379.58 74.3 395.25 74.26C400.35 74.25 411.89 73.08 416.25 74.4C421.3 75.94 423.39 83.25 428.18 84.96ZM102.13 89.09C99.78 89.54 95.69 93.9 95.01 96.19C95.23 96.37 95.44 96.56 95.65 96.75C94.77 97.25 93.88 97.75 93 98.25C93.35 99.89 93.51 99.32 92.25 100.65C91.91 100.45 91.56 100.25 91.22 100.05C85.15 106.43 79.08 112.81 73.01 119.19C73.22 119.38 73.44 119.56 73.65 119.75C72.68 120.72 71.72 121.68 70.75 122.65C70.56 122.45 70.37 122.25 70.18 122.05C63.46 129.09 56.73 136.14 50.01 143.19C50.22 143.38 50.44 143.56 50.65 143.75C49.35 145.05 48.05 146.35 46.75 147.65C46.56 147.45 46.37 147.25 46.18 147.05C38.79 154.76 31.4 162.48 24.01 170.19C24.22 170.38 24.44 170.56 24.65 170.75C24.16 170.84 23.68 170.93 23.19 171.01C20.52 171.89 19.11 176.74 22.18 177.97C22.37 177.76 22.56 177.56 22.75 177.35C23.38 177.98 24.02 178.62 24.65 179.25C24.43 179.44 24.22 179.62 24 179.81C28.74 184.85 33.48 189.9 38.22 194.94C38.56 194.74 38.91 194.55 39.25 194.35C40.51 195.68 40.35 195.11 40 196.75C40.88 197.25 41.77 197.75 42.65 198.25C42.44 198.44 42.22 198.62 42.01 198.81C47.39 204.49 52.77 210.16 58.16 215.84C59.18 216.88 60.2 217.91 61.22 218.95C61.56 218.75 61.91 218.55 62.25 218.35C62.72 218.82 63.18 219.28 63.65 219.75C63.44 220.09 63.23 220.44 63.02 220.78C71.08 229.18 79.13 237.58 87.18 245.97C87.67 246.07 88.16 246.16 88.65 246.25C88.44 246.44 88.22 246.62 88.01 246.81C96.07 255.2 104.12 263.58 112.18 271.96C112.37 271.76 112.56 271.55 112.75 271.35C112.92 271.9 113.08 272.45 113.25 273C115.22 272.58 115.42 272.78 115 274.75C115.55 274.92 116.1 275.08 116.65 275.25C116.43 275.44 116.22 275.62 116 275.81C123.4 283.53 130.79 291.24 138.18 298.96C138.37 298.75 138.56 298.55 138.75 298.35C139.38 298.98 140.02 299.62 140.65 300.25C140.44 300.44 140.23 300.63 140.02 300.81C146.41 307.53 152.79 314.24 159.18 320.95C159.37 320.75 159.56 320.55 159.75 320.35C160.38 320.98 161.02 321.62 161.65 322.25C161.44 322.44 161.22 322.63 161.01 322.81C165.72 327.83 170.43 332.84 175.14 337.86C176.16 338.89 177.17 339.93 178.18 340.96C178.37 340.76 178.56 340.55 178.75 340.35C179.72 341.32 180.68 342.28 181.65 343.25C181.44 343.44 181.22 343.62 181.01 343.81C187.75 350.86 194.48 357.91 201.22 364.96C201.56 364.76 201.91 364.55 202.25 364.35C203.51 365.68 203.35 365.11 203 366.75C203.88 367.25 204.77 367.75 205.65 368.25C205.43 368.44 205.22 368.62 205 368.81C210.73 374.87 216.46 380.92 222.19 386.98C222.67 387.07 223.16 387.16 223.65 387.25C223.44 387.44 223.22 387.62 223.01 387.81C228.73 393.86 234.46 399.92 240.18 405.97C240.37 405.76 240.56 405.56 240.75 405.35C241.38 405.98 242.02 406.62 242.65 407.25C242.43 407.44 242.22 407.62 242 407.81C242.75 410.69 254.56 422.69 257.69 422.34C259.55 422.12 260.99 420.24 262.25 419.01C265.11 416.21 272.98 409.18 273.99 405.81C273.78 405.62 273.56 405.44 273.35 405.25C274.32 404.28 275.28 403.32 276.25 402.35C276.44 402.55 276.63 402.74 276.82 402.94C281.54 397.9 286.27 392.86 290.99 387.81C290.77 387.63 290.56 387.44 290.35 387.25C290.84 387.15 291.33 387.06 291.82 386.96C297.54 380.91 303.27 374.86 308.99 368.81C308.78 368.62 308.56 368.44 308.35 368.25C308.98 367.62 309.62 366.98 310.25 366.35C310.44 366.56 310.63 366.77 310.81 366.97C317.87 359.59 324.94 352.2 332 344.81C331.78 344.62 331.57 344.44 331.35 344.25C331.98 343.62 332.62 342.98 333.25 342.35C333.44 342.56 333.63 342.76 333.82 342.97C340.83 335.6 347.85 328.23 354.86 320.86C360.24 315.18 365.61 309.49 370.99 303.81C370.78 303.63 370.56 303.44 370.35 303.25C370.98 302.62 371.62 301.98 372.25 301.35C372.44 301.56 372.63 301.77 372.81 301.98C373.83 300.93 374.84 299.89 375.86 298.85C381.9 292.5 387.95 286.16 394 279.81C393.78 279.62 393.57 279.44 393.35 279.25C394.98 277.62 396.62 275.98 398.25 274.35C398.44 274.55 398.63 274.76 398.82 274.96C405.21 268.24 411.6 261.53 418 254.81C417.78 254.62 417.57 254.44 417.35 254.25C418.65 252.95 419.95 251.65 421.25 250.35C421.44 250.55 421.63 250.76 421.82 250.96C427.54 244.91 433.26 238.86 438.99 232.81C438.77 232.63 438.56 232.44 438.35 232.25C439.57 231.42 440.78 230.58 442 229.75C441.65 228.11 441.49 228.68 442.75 227.35C443.09 227.55 443.44 227.74 443.78 227.94C450.18 221.23 456.58 214.52 462.97 207.82C462.77 207.63 462.56 207.44 462.35 207.25C462.84 207.15 463.33 207.06 463.82 206.96C470.54 199.91 477.27 192.86 484 185.81C483.78 185.62 483.57 185.44 483.35 185.25C483.84 185.16 484.33 185.07 484.81 184.98C491.25 182.82 497.35 171.16 487.78 168.03C487.44 168.24 487.09 168.44 486.75 168.65C486.28 168.18 485.82 167.72 485.35 167.25C485.57 166.91 485.78 166.56 486 166.22C477.27 157.15 468.54 148.09 459.81 139.02C459.33 138.93 458.84 138.84 458.35 138.75C458.56 138.56 458.78 138.38 458.99 138.19C452.93 131.8 446.88 125.42 440.82 119.03C440.63 119.24 440.44 119.44 440.25 119.65C439.62 119.02 438.98 118.38 438.35 117.75C438.56 117.56 438.77 117.37 438.99 117.19C432.93 110.8 426.87 104.41 420.81 98.02C420.32 97.93 419.84 97.84 419.35 97.75C419.57 97.56 419.78 97.38 420 97.19C419.2 94.58 413.65 88.54 410.75 87.92C405.7 86.85 399.42 87.84 394.25 87.84C382.92 87.83 371.58 87.83 360.25 87.84C297.25 87.85 234.25 87.84 171.25 87.84C153.75 87.84 136.25 87.83 118.75 87.84C115.82 87.84 103.15 87.03 102.13 89.09ZM167.09 95.41C157.31 118.41 147.53 141.42 137.75 164.42C128.5 141.42 119.25 118.41 109.99 95.41C129.03 95.41 148.06 95.41 167.09 95.41ZM330.94 95.41C306.38 120.13 281.81 144.85 257.25 169.58C232.56 144.85 207.88 120.13 183.19 95.41C232.44 95.41 281.69 95.41 330.94 95.41ZM350.92 106.11C349.68 102.65 348.44 99.2 347.21 95.75C366.27 95.75 385.34 95.75 404.41 95.75C395.19 118.66 385.97 141.57 376.75 164.48C368.14 145.02 359.53 125.57 350.92 106.11ZM177.12 99.88C178.14 100.91 179.17 101.95 180.19 102.98C180.37 102.77 180.56 102.56 180.75 102.35C181.72 103.32 182.68 104.28 183.65 105.25C183.44 105.44 183.22 105.62 183.01 105.81C184.08 106.87 185.15 107.93 186.22 108.99C187.55 108.31 187.26 108.73 188.65 109.25C188.17 111.16 189.84 112.83 191.75 112.35C192.64 114.7 196.72 121.11 199.75 120.35C200.56 122.48 202.91 127.06 205.75 126.35C207.74 131.61 218.27 138.14 219.01 141.81C219.74 142.54 220.46 143.27 221.19 143.99C221.38 143.78 221.56 143.56 221.75 143.35C222.38 143.98 223.02 144.62 223.65 145.25C223.44 145.44 223.22 145.62 223.01 145.81C224.4 147.21 225.8 148.6 227.19 149.99C227.38 149.78 227.56 149.56 227.75 149.35C228.38 149.98 229.02 150.62 229.65 151.25C229.44 151.44 229.22 151.62 229.01 151.81C230.03 152.85 231.06 153.88 232.08 154.92C233.08 155.92 234.09 156.91 235.09 157.91C236.09 158.91 237.08 159.92 238.08 160.92C239.08 161.92 240.09 162.91 241.09 163.91C241.59 165.87 245.11 169.43 247.09 169.91C246.81 170.36 246.53 170.8 246.25 171.25C212.25 171.2 178.25 171.15 144.25 171.1C154.42 146.9 164.58 122.7 174.75 98.5C175.54 98.96 176.33 99.42 177.12 99.88ZM339.25 98.34C349.58 122.64 359.92 146.94 370.25 171.24C335.92 171.24 301.58 171.24 267.25 171.24C291.25 146.94 315.25 122.64 339.25 98.34ZM50.99 151.81C50.78 151.62 50.56 151.44 50.35 151.25C51.65 149.95 52.95 148.65 54.25 147.35C54.44 147.55 54.63 147.75 54.82 147.95C61.21 141.24 67.6 134.52 73.99 127.81C73.78 127.62 73.56 127.44 73.35 127.25C74.23 126.75 75.12 126.25 76 125.75C75.65 124.11 75.49 124.68 76.75 123.35C77.09 123.55 77.44 123.75 77.78 123.95C84.16 117.26 90.53 110.57 96.91 103.88C98.86 102.31 100.8 100.74 102.75 99.17C112.42 123.08 122.08 147 131.75 170.91C99.08 170.87 66.42 170.83 33.75 170.8C39.5 164.47 45.25 158.14 50.99 151.81ZM413.18 99.95C413.37 99.75 413.56 99.55 413.75 99.35C414.72 100.32 415.68 101.28 416.65 102.25C416.43 102.44 416.22 102.62 416 102.81C420.74 107.86 425.48 112.9 430.22 117.95C430.56 117.75 430.91 117.55 431.25 117.35C432.51 118.68 432.35 118.11 432 119.75C432.88 120.25 433.77 120.75 434.65 121.25C434.44 121.44 434.22 121.62 434.01 121.81C439.39 127.49 444.77 133.17 450.15 138.85C451.17 139.89 452.19 140.93 453.22 141.96C453.56 141.76 453.91 141.55 454.25 141.35C454.72 141.82 455.18 142.28 455.65 142.75C455.44 143.09 455.22 143.44 455.01 143.78C462.37 151.49 469.73 159.19 477.08 166.9C477.97 168.28 478.86 169.65 479.75 171.03C447.42 171.1 415.08 171.16 382.75 171.23C392.39 147.24 402.04 123.24 411.68 99.25C412.18 99.48 412.68 99.72 413.18 99.95ZM166.09 239.88C166.79 241.25 167.49 242.62 168.19 243.99C168.38 243.78 168.56 243.56 168.75 243.35C169.27 244.74 169.69 244.46 169 245.78C169.73 247.19 170.46 248.59 171.19 249.99C171.38 249.78 171.56 249.56 171.75 249.35C172.27 250.74 172.69 250.46 172.01 251.78C180.7 269.48 189.4 287.17 198.09 304.87C198.27 307.95 204.3 316.15 202.87 318.1C196.87 312.77 190.87 307.43 184.87 302.1C181.88 299.43 178.89 296.75 175.9 294.08C172.9 291.42 169.89 288.75 166.89 286.09C166.22 283.7 160.27 278.6 157.9 278.08C154.9 275.42 151.89 272.75 148.89 270.08C145.89 267.42 142.88 264.76 139.88 262.09C139.14 259.68 132.38 253.83 131.01 258.22C131.23 258.39 131.44 258.57 131.65 258.75C131.43 259.42 131.22 260.08 131 260.75C131.88 261.25 132.77 261.75 133.65 262.25C133.44 262.44 133.23 262.63 133.02 262.81C139.05 268.18 145.09 273.54 151.13 278.9C154.12 281.58 157.11 284.25 160.1 286.92C166.14 292.28 172.18 297.64 178.22 303C178.56 302.78 178.91 302.57 179.25 302.35C179.72 302.82 180.18 303.28 180.65 303.75C180.45 304.09 180.26 304.44 180.06 304.78C182.77 307.18 185.48 309.59 188.19 311.99C188.37 311.77 188.56 311.56 188.75 311.35C188.85 311.84 188.95 312.33 189.05 312.82C191.73 315.18 194.42 317.55 197.11 319.91C199.81 322.27 202.51 324.64 205.22 327C205.56 326.78 205.91 326.57 206.25 326.35C206.72 326.82 207.18 327.28 207.65 327.75C207.46 328.09 207.27 328.44 207.08 328.78C207.98 330.89 211.82 334.06 213.61 337.66C220.19 350.96 226.38 364.42 233.06 377.67C234.91 381.35 241.7 393.14 241.75 396.46C239.11 393.98 236.46 391.51 233.82 389.04C233.63 389.24 233.44 389.45 233.25 389.65C232.62 389.02 231.98 388.38 231.35 387.75C231.57 387.56 231.78 387.38 232 387.19C225.64 380.5 219.27 373.8 212.91 367.11C205.88 359.75 198.85 352.39 191.82 345.03C191.63 345.24 191.44 345.44 191.25 345.65C190.62 345.02 189.98 344.38 189.35 343.75C189.56 343.56 189.77 343.37 189.98 343.18C182.93 335.81 175.87 328.43 168.82 321.05C168.63 321.25 168.44 321.45 168.25 321.65C166.95 320.35 165.65 319.05 164.35 317.75C164.56 317.56 164.78 317.38 164.99 317.19C158.94 310.81 152.88 304.43 146.82 298.05C146.63 298.25 146.44 298.45 146.25 298.65C144.95 297.35 143.65 296.05 142.35 294.75C142.56 294.56 142.78 294.38 142.99 294.19C136.27 287.14 129.54 280.09 122.82 273.04C122.63 273.24 122.44 273.45 122.25 273.65C121.28 272.68 120.32 271.72 119.35 270.75C119.56 270.56 119.78 270.37 119.99 270.19C113.27 263.14 106.54 256.09 99.82 249.04C99.63 249.24 99.44 249.45 99.25 249.65C98.62 249.02 97.98 248.38 97.35 247.75C97.56 247.56 97.77 247.37 97.98 247.18C90.26 239.13 82.54 231.08 74.82 223.03C74.33 222.93 73.84 222.84 73.35 222.75C73.56 222.56 73.77 222.37 73.98 222.19C66.96 214.83 59.93 207.47 52.91 200.12C46.89 193.79 40.88 187.47 34.86 181.15C34.55 180.52 34.24 179.88 33.93 179.25C67.83 179.25 101.73 179.25 135.63 179.25C145.79 199.46 155.94 219.67 166.09 239.88ZM205.91 305.12C205.82 301.24 198.5 289.09 196.39 284.84C188.44 268.81 180.37 252.79 172.58 236.66C170.2 231.73 167.77 226.81 165.34 221.9C164.47 220.13 163.52 216.96 161.91 216.11C156.12 203.82 150.32 191.54 144.52 179.25C180.26 179.19 216.01 179.13 251.75 179.08C240.58 228.85 229.42 278.62 218.25 328.39C214.14 320.64 210.02 312.88 205.91 305.12ZM327.08 268.1C325.75 270.77 324.42 273.44 323.09 276.1C322.09 278.11 321.09 280.12 320.09 282.12C317.57 283.54 315.79 289.91 314.4 292.64C310.33 300.63 306.64 308.81 302.52 316.76C300.77 320.12 297.02 325.41 297.09 329.11C294.65 328.07 294.5 322.71 293.99 320.26C292.11 311.25 289.87 302.3 287.88 293.32C282.01 266.95 275.65 240.69 269.98 214.26C268.04 205.25 265.82 196.29 263.92 187.27C263.36 184.63 262.32 181.95 262.23 179.25C298.11 179.25 334 179.25 369.88 179.25C355.62 208.87 341.35 238.49 327.08 268.1ZM480.02 180.19C480.23 180.37 480.44 180.56 480.65 180.75C480.1 180.92 479.55 181.08 479 181.25C479.35 182.89 479.51 182.32 478.25 183.65C477.91 183.44 477.56 183.24 477.22 183.03C476.19 184.07 475.17 185.11 474.15 186.14C468.1 192.5 462.06 198.86 456.01 205.22C456.23 205.56 456.44 205.91 456.65 206.25C455.32 207.51 455.89 207.35 454.25 207C454.08 207.55 453.92 208.1 453.75 208.65C453.56 208.45 453.37 208.26 453.18 208.06C446.46 215.1 439.73 222.14 433.01 229.19C433.22 229.37 433.44 229.56 433.65 229.75C432.35 231.05 431.05 232.35 429.75 233.65C429.56 233.45 429.37 233.25 429.18 233.05C423.12 239.43 417.06 245.81 411.01 252.19C411.22 252.38 411.44 252.56 411.65 252.75C410.68 253.72 409.72 254.68 408.75 255.65C408.56 255.45 408.37 255.24 408.18 255.04C401.13 262.42 394.07 269.8 387.02 277.18C387.23 277.37 387.44 277.56 387.65 277.75C387.02 278.38 386.38 279.02 385.75 279.65C385.56 279.45 385.37 279.24 385.18 279.04C378.46 286.09 371.74 293.14 365.02 300.18C365.23 300.37 365.44 300.56 365.65 300.75C365.16 300.85 364.67 300.94 364.18 301.04C358.15 307.39 352.12 313.75 346.08 320.1C339.06 327.46 332.03 334.83 325.01 342.19C325.22 342.37 325.44 342.56 325.65 342.75C325.02 343.38 324.38 344.02 323.75 344.65C323.56 344.45 323.37 344.24 323.18 344.04C322.17 345.08 321.17 346.12 320.16 347.16C314.78 352.83 309.39 358.51 304.01 364.19C304.22 364.38 304.44 364.56 304.65 364.75C303.77 365.25 302.88 365.75 302 366.25C302.35 367.89 302.51 367.32 301.25 368.65C300.91 368.46 300.56 368.26 300.22 368.07C295.48 373.11 290.74 378.15 286 383.19C286.22 383.38 286.43 383.56 286.65 383.75C285.02 385.38 283.38 387.02 281.75 388.65C281.56 388.45 281.37 388.25 281.18 388.05C278.54 390.61 275.89 393.17 273.25 395.73C274.5 392.41 275.75 389.1 277 385.78C276.31 384.46 276.73 384.74 277.25 383.35C277.44 383.56 277.62 383.77 277.81 383.98C280.05 382.54 281.4 377.86 282.61 375.36C286.46 367.41 290.24 359.37 294.3 351.53C295.77 348.69 299.31 345.82 299.91 342.89C303.58 338.55 307.24 334.22 310.91 329.88C312.58 327.88 314.24 325.89 315.91 323.89C317.58 321.89 319.25 319.89 320.91 317.89C322.91 315.55 324.91 313.22 326.91 310.88C328.58 308.88 330.25 306.89 331.92 304.9C337.25 298.56 342.58 292.23 347.91 285.89C349.91 283.55 351.91 281.22 353.91 278.88C355.57 276.88 357.24 274.89 358.91 272.89C362.58 268.55 366.24 264.21 369.91 259.88C371.58 257.88 373.24 255.89 374.91 253.89C376.91 251.55 378.91 249.21 380.9 246.87C383.22 246.11 387.81 240.62 386.24 238.02C384.04 234.39 379.59 238.54 379.09 241.11C377.09 243.45 375.09 245.79 373.1 248.13C371.4 250.15 369.7 252.17 368 254.19C368.22 254.38 368.43 254.56 368.65 254.75C368.16 254.85 367.67 254.96 367.18 255.06C360.15 263.41 353.12 271.76 346.09 280.11C344.09 282.45 342.09 284.79 340.1 287.13C338.43 289.13 336.76 291.12 335.09 293.12C333.42 295.11 331.75 297.11 330.08 299.11C328.06 301.46 326.04 303.82 324.02 306.18C324.23 306.37 324.44 306.56 324.65 306.75C324.16 306.85 323.67 306.95 323.18 307.06C321.49 309.08 319.79 311.11 318.1 313.14C316.43 315.14 314.76 317.13 313.1 319.13C311.44 320.67 309.79 322.21 308.13 323.75C312.73 313.8 317.32 303.84 321.91 293.89C322.91 291.89 323.91 289.89 324.91 287.89C334.91 267.55 344.91 247.22 354.91 226.88C356.96 225.64 360.18 217.35 361.45 214.7C365.21 206.84 369.22 199.08 373.04 191.25C374.62 188.02 376.14 181.96 378.79 179.55C380.04 178.43 382.68 178.94 384.25 178.94C389.25 178.92 394.25 178.93 399.25 178.93C418.75 178.93 438.25 178.92 457.75 178.92C463.25 178.92 468.75 178.94 474.25 178.92C476.24 178.9 479.25 178.12 480.02 180.19ZM269.09 386.12C265.14 393.61 261.2 401.1 257.25 408.59C248.14 390.44 239.02 372.29 229.91 354.13C229.62 349.06 223.69 344.48 223.72 339.3C223.73 337.27 224.68 335.22 225.04 333.25C226.69 324.35 229.27 315.62 231.06 306.75C236.05 281.96 241.88 257.2 247.85 232.65C250.07 223.55 251.77 214.33 254.11 205.26C255.02 201.73 254.99 195.82 257.25 193.01C260.85 202.74 262.79 216.79 265.09 227.22C269.95 249.25 275.3 271.18 280.02 293.24C282.24 303.57 284.59 313.94 287.09 324.22C288.26 329.05 290.83 335.28 290.68 340.25C290.58 343.51 287.5 347.48 286.12 350.38C282.03 358.92 277.71 367.34 273.66 375.9C272.21 378.96 269.25 382.82 269.09 386.12Z" fill="#fefefe" fill-rule="evenodd" stroke="#fefefe" stroke-width="0.25" stroke-linejoin="round"/>
<path d="M428.18 84.96C423.39 83.25 421.3 75.94 416.25 74.4C411.89 73.08 400.35 74.25 395.25 74.26C379.58 74.3 363.92 74.26 348.25 74.26C296.92 74.25 245.58 74.22 194.25 74.27C171.57 74.29 148.9 74.25 126.22 74.26C120.04 74.26 102.09 73.03 97.18 74.34C91.67 75.81 81.61 92.94 75.81 94.97C75.67 91.26 82.86 86.23 85.47 83.62C87.8 81.29 93.6 74.01 96.27 72.95C99.67 71.6 105.58 72.73 109.25 72.73C119.08 72.73 128.92 72.73 138.75 72.73C210.08 72.73 281.42 72.73 352.75 72.73C366.92 72.73 381.08 72.73 395.25 72.73C401.74 72.73 409.38 71.6 415.75 72.73C418.77 73.27 428.3 82.01 428.18 84.96ZM430.01 86.81C433.81 88.32 443.26 99.31 446.79 102.86C448.53 104.62 451.29 106.41 451.19 108.98C444.13 101.59 437.07 94.2 430.01 86.81ZM420 97.19C416.59 95.85 414.84 90.86 411.47 89.4C409.51 88.55 405.88 89.26 403.75 89.26C397.75 89.27 391.75 89.26 385.75 89.26C364.92 89.26 344.08 89.26 323.25 89.26C273.75 89.26 224.25 89.26 174.75 89.26C158.75 89.26 142.75 89.26 126.75 89.26C118.78 89.26 109.93 90.24 102.13 89.09C103.15 87.03 115.82 87.84 118.75 87.84C136.25 87.83 153.75 87.84 171.25 87.84C234.25 87.84 297.25 87.85 360.25 87.84C371.58 87.83 382.92 87.83 394.25 87.84C399.42 87.84 405.7 86.85 410.75 87.92C413.65 88.54 419.2 94.58 420 97.19ZM102.13 89.09C99.76 91.46 97.39 93.82 95.01 96.19C95.69 93.9 99.78 89.54 102.13 89.09ZM109.25 93.72C128.75 93.72 148.25 93.72 167.75 93.72C169.42 99.08 162.42 109.26 160.4 114.53C153.68 132.12 146.15 148.92 138.75 166.18C134.96 165.79 132.36 154.08 130.58 150.53C128.47 146.34 127.3 141.92 125.6 137.53C124.97 135.88 123.57 134.39 122.95 132.73C119.94 124.61 116.66 116.57 113.57 108.53C112.04 104.54 107.91 97.95 109.25 93.72ZM333.19 93.73C332.89 98 321.88 107.06 318.38 110.53C303.65 125.13 289.07 139.88 274.38 154.53C270.37 158.52 266.39 162.54 262.38 166.52C260.56 168.33 258.83 170.93 256.25 171.18C237.9 152.35 219 134.04 200.47 115.38C196.15 111.04 191.79 106.73 187.47 102.38C185.98 100.89 182.7 98.7 181.96 96.73C181.6 95.78 181.79 94.71 181.82 93.73C232.28 93.73 282.74 93.73 333.19 93.73ZM350.92 106.11C359.53 125.57 368.14 145.02 376.75 164.48C385.97 141.57 395.19 118.66 404.41 95.75C385.34 95.75 366.27 95.75 347.21 95.75C348.44 99.2 349.68 102.65 350.92 106.11C348.37 105.07 345.69 97.14 345.81 94.25C365.94 94.25 386.07 94.25 406.19 94.25C405.71 99.25 402.21 103.83 400.4 108.53C397.84 115.18 395.71 122.03 393.05 128.69C390.79 134.36 387.63 139.78 385.39 145.53C384.66 147.42 384.4 149.38 383.53 151.14C382.14 153.97 380.54 157.58 379.4 160.53C378.88 161.87 378.91 164.57 378.05 165.71C377.41 166.55 376.15 166.23 375.25 166.19C370.11 151.75 363.12 137.85 357.59 123.53C355.8 118.9 350.19 110.84 350.92 106.11ZM167.09 95.41C148.06 95.41 129.03 95.41 109.99 95.41C119.25 118.41 128.5 141.42 137.75 164.42C147.53 141.42 157.31 118.41 167.09 95.41ZM330.94 95.41C281.69 95.41 232.44 95.41 183.19 95.41C207.88 120.13 232.56 144.85 257.25 169.58C281.81 144.85 306.38 120.13 330.94 95.41ZM75 95.81C60.6 110.87 46.21 125.93 31.81 140.99C31.68 137.23 38.98 132.11 41.63 129.48C49.59 121.58 56.64 113.41 64.63 105.48C67.55 102.58 71.32 97.24 75 95.81ZM50.99 151.81C45.25 158.14 39.5 164.47 33.75 170.8C66.42 170.83 99.08 170.87 131.75 170.91C122.08 147 112.42 123.08 102.75 99.17C100.8 100.74 98.86 102.31 96.91 103.88C96.58 101.23 100.44 98.69 102.25 96.81C105.6 98.77 108.42 110.51 110.42 114.47C112.58 118.73 113.68 123.07 115.39 127.47C116.03 129.12 117.44 130.61 118.05 132.27C121.06 140.39 124.31 148.4 127.42 156.47C128.96 160.48 133.46 167.55 133.14 171.75C99.38 171.75 65.61 171.75 31.84 171.75C32.02 169.35 34.17 167.89 35.86 166.22C39.56 162.55 46.66 153.52 50.99 151.81ZM177.12 99.88C176.33 99.42 175.54 98.96 174.75 98.5C164.58 122.7 154.42 146.9 144.25 171.1C178.25 171.15 212.25 171.2 246.25 171.25C246.53 170.8 246.81 170.36 247.09 169.91C247.79 170.53 248.49 171.14 249.18 171.75C213.39 171.75 177.6 171.75 141.81 171.75C144.07 167.87 145.42 163.43 146.95 159.27C149.33 152.81 153.11 146.88 155.6 140.47C159.03 131.64 162.34 122.28 166.47 113.86C168.28 110.15 171.92 97.2 175.75 96.81C176.21 97.83 176.67 98.85 177.12 99.88ZM340.75 96.81C351.23 121.93 361.7 147.06 372.18 172.19C336.39 172.19 300.6 172.19 264.81 172.19C266.79 167.53 277.53 158.58 281.65 154.49C295.02 141.19 308.29 127.79 321.65 114.49C325.99 110.17 330.29 105.8 334.65 101.49C336.47 99.7 338.19 97.08 340.75 96.81ZM413.18 99.95C412.68 99.72 412.18 99.48 411.68 99.25C402.04 123.24 392.39 147.24 382.75 171.23C415.08 171.16 447.42 171.1 479.75 171.03C478.86 169.65 477.97 168.28 477.08 166.9C478.78 168.51 480.48 170.13 482.18 171.75C448.4 171.75 414.61 171.75 380.82 171.75C390.63 147.1 400.44 122.46 410.25 97.81C412.26 97.72 413.27 97.76 413.18 99.95ZM420.81 98.02C426.87 104.41 432.93 110.8 438.99 117.19C434.85 115.55 428.14 107.03 424.61 103.53C422.97 101.89 420.72 100.43 420.81 98.02ZM339.25 98.34C315.25 122.64 291.25 146.94 267.25 171.24C301.58 171.24 335.92 171.24 370.25 171.24C359.92 146.94 349.58 122.64 339.25 98.34ZM91.22 100.05C91.25 102.43 89.02 103.9 87.38 105.53C83.86 109.03 77.15 117.56 73.01 119.19C79.08 112.81 85.15 106.43 91.22 100.05ZM177.12 99.88C179.18 99.66 180.27 100.91 180.19 102.98C179.17 101.95 178.14 100.91 177.12 99.88ZM416 102.81C418.51 103.79 430.26 115.56 430.22 117.95C425.48 112.9 420.74 107.86 416 102.81ZM96.91 103.88C90.53 110.57 84.16 117.26 77.78 123.95C77.74 121.58 79.98 120.09 81.62 118.47C85.15 114.98 92.9 105.28 96.91 103.88ZM183.01 105.81C185.18 105.73 186.26 106.85 186.22 108.99C185.15 107.93 184.08 106.87 183.01 105.81ZM452 109.81C455.86 111.3 465.92 122.98 469.53 126.62C471.31 128.42 474.29 130.34 474.18 132.96C470.87 131.76 460.41 119.35 457.24 116.02C455.5 114.19 452.63 112.19 452 109.81ZM440.82 119.03C446.88 125.42 452.93 131.8 458.99 138.19C454.86 136.57 448.14 128.02 444.62 124.53C442.98 122.9 440.73 121.43 440.82 119.03ZM70.18 122.05C70.28 124.49 67.82 126.12 66.14 127.79C62.64 131.26 53.78 141.7 50.01 143.19C56.73 136.14 63.46 129.09 70.18 122.05ZM434.01 121.81C437.72 123.27 443.65 130.71 446.78 133.86C448.28 135.36 450.31 136.7 450.15 138.85C444.77 133.17 439.39 127.49 434.01 121.81ZM73.99 127.81C67.6 134.52 61.21 141.24 54.82 147.95C54.72 145.51 57.19 143.87 58.86 142.22C62.54 138.57 69.68 129.51 73.99 127.81ZM477 135.81C480.79 137.3 490.26 148.32 493.79 151.86C495.46 153.55 498.4 155.47 498.08 157.89C491.06 150.53 484.03 143.17 477 135.81ZM450.15 138.85C452.2 138.69 453.25 139.93 453.22 141.96C452.19 140.93 451.17 139.89 450.15 138.85ZM459.81 139.02C468.54 148.09 477.27 157.15 486 166.22C482.25 164.68 469.33 150.27 465.47 146.38C463.5 144.4 459.7 141.9 459.81 139.02ZM219.01 141.81C219.59 141.81 220.17 141.81 220.75 141.8C220.9 142.53 221.04 143.26 221.19 143.99C220.46 143.27 219.74 142.54 219.01 141.81ZM29.99 142.81C29.27 145.17 26.32 147.46 24.55 149.31C21.24 152.76 11.43 164.69 7.82 165.97C7.71 163.34 10.68 161.41 12.47 159.61C16.14 155.92 26.04 144.37 29.99 142.81ZM455.01 143.78C459.07 145.47 468.76 156.83 472.53 160.61C474.25 162.35 477.41 164.41 477.08 166.9C469.73 159.19 462.37 151.49 455.01 143.78ZM223.01 145.81C224.41 146.62 225.8 147.44 227.19 148.25C227.19 148.83 227.19 149.41 227.19 149.99C225.8 148.6 224.4 147.21 223.01 145.81ZM46.18 147.05C46.29 149.66 43.31 151.6 41.53 153.38C37.85 157.08 27.97 168.62 24.01 170.19C31.4 162.48 38.79 154.76 46.18 147.05ZM229.01 151.81C230.03 152.85 231.06 153.88 232.08 154.92C231.06 153.88 230.03 152.85 229.01 151.81ZM232.08 154.92C232.3 154.9 232.53 154.89 232.75 154.88C233.53 155.89 234.31 156.9 235.09 157.91C234.09 156.91 233.08 155.92 232.08 154.92ZM235.09 157.91C236.1 158.69 237.11 159.47 238.13 160.25C238.11 160.47 238.1 160.69 238.08 160.92C237.08 159.92 236.09 158.91 235.09 157.91ZM498.08 157.89C500.27 158.63 510.34 168.74 510.09 170.89C506.09 166.56 502.09 162.23 498.08 157.89ZM238.08 160.92C238.31 160.9 238.53 160.89 238.75 160.87C239.53 161.89 240.31 162.9 241.09 163.91C240.09 162.91 239.08 161.92 238.08 160.92ZM241.09 163.91C243.09 165.91 245.09 167.91 247.09 169.91C245.11 169.43 241.59 165.87 241.09 163.91ZM5.99 167.81C5.24 170.33 2.98 171.72 2.96 174.75C2.91 182.22 13.06 184.91 14.99 191.19C12.18 190.08 3.03 180.69 1.96 177.73C0.66 174.14 2.58 169.16 5.99 167.81ZM487.78 168.03C497.35 171.16 491.25 182.82 484.81 184.98C484.65 180.82 490.76 179.78 491.65 176.19C492.62 172.3 487.72 171.54 487.78 168.03ZM23.19 171.01C22.88 171.68 22.56 172.34 22.25 173C21.92 173.67 21.58 174.33 21.25 175C21.25 175.33 21.25 175.67 21.25 176C21.56 176.66 21.87 177.31 22.18 177.97C19.11 176.74 20.52 171.89 23.19 171.01ZM510.09 170.89C510.31 170.87 510.53 170.86 510.75 170.85C511.14 171.2 511.53 171.55 511.92 171.9C511.92 173.63 511.92 175.37 511.92 177.1C511.61 177.15 511.31 177.2 511 177.25C511.08 179.72 507.25 183.31 505 184.19C505.71 181.82 508.37 180.56 509.59 178.33C511.04 175.69 510.14 173.54 510.09 170.89ZM166.09 239.88C155.94 219.67 145.79 199.46 135.63 179.25C101.73 179.25 67.83 179.25 33.93 179.25C34.24 179.88 34.55 180.52 34.86 181.15C32.81 181.31 31.99 180.24 31.83 178.25C66.8 178.1 101.78 177.95 136.75 177.81C143.14 192.77 151.05 207.68 158.42 222.47C160.4 226.42 166.69 236.03 166.09 239.88ZM205.91 305.12C210.02 312.88 214.14 320.64 218.25 328.39C229.42 278.62 240.58 228.85 251.75 179.08C216.01 179.13 180.26 179.19 144.52 179.25C150.32 191.54 156.12 203.82 161.91 216.11C159.7 215.4 157.64 209.55 156.46 207.14C153.55 201.16 150.65 194.67 147.59 188.53C146.03 185.42 143.12 181.7 142.83 178.25C179.47 178.12 216.11 177.99 252.75 177.86C254.1 181.82 251.66 184.57 251.25 188.25C250.27 196.97 247.37 205.4 245.3 213.81C245.03 214.92 245.52 216.15 245.22 217.25C243.89 222.06 242.48 226.97 241.31 231.81C241.04 232.92 241.53 234.15 241.23 235.25C240.72 237.08 239.77 238.97 239.33 240.81C239.06 241.92 239.54 243.15 239.23 244.25C238.81 245.77 237.67 247.29 237.3 248.81C236.63 251.57 236.99 254.51 236.23 257.25C235.72 259.08 234.77 260.97 234.33 262.81C234.06 263.92 234.54 265.15 234.23 266.25C233.35 269.42 232.09 272.62 231.32 275.81C231.05 276.92 231.54 278.15 231.23 279.25C230.35 282.42 229.08 285.62 228.31 288.81C227.57 291.87 227.55 294.62 226.39 297.53C225.34 300.17 226 303.51 225.23 306.25C223.88 311.07 222.49 315.94 221.33 320.81C220.63 323.77 220.81 328.87 217.75 330.27C213.92 326.26 211.09 317.4 208.57 312.37C207.39 310.01 205.49 307.87 205.91 305.12ZM327.08 268.1C341.35 238.49 355.62 208.87 369.88 179.25C334 179.25 298.11 179.25 262.23 179.25C262.32 181.95 263.36 184.63 263.92 187.27C265.82 196.29 268.04 205.25 269.98 214.26C275.65 240.69 282.01 266.95 287.88 293.32C289.87 302.3 292.11 311.25 293.99 320.26C294.5 322.71 294.65 328.07 297.09 329.11C297.24 330.57 297.1 330.67 295.75 331.27C293.15 328.48 293.55 323.44 292.67 319.81C291.51 314.95 290.13 310.07 288.77 305.25C288.46 304.15 288.94 302.92 288.67 301.81C287.92 298.62 286.66 295.41 285.77 292.25C285.46 291.15 285.93 289.92 285.67 288.81C285.23 286.97 284.28 285.08 283.77 283.25C283.01 280.51 283.37 277.57 282.7 274.81C279.13 260 275.84 244.96 271.77 230.25C271.47 229.15 271.96 227.92 271.69 226.81C270.91 223.63 269.65 220.42 268.77 217.25C268.47 216.15 268.95 214.92 268.68 213.81C266.56 205.06 263.78 196.29 262.76 187.25C262.38 183.94 260.02 181.33 261.25 177.84C297.88 177.98 334.5 178.11 371.13 178.25C371.51 183.22 363.41 194.29 361.4 199.53C355.32 215.45 346.25 230.83 338.41 246.53C335.75 251.87 333.06 257.2 330.4 262.53C329.51 264.32 328.68 267.45 327.08 268.1ZM480.02 180.19C479.25 178.12 476.24 178.9 474.25 178.92C468.75 178.94 463.25 178.92 457.75 178.92C438.25 178.92 418.75 178.93 399.25 178.93C394.25 178.93 389.25 178.92 384.25 178.94C382.68 178.94 380.04 178.43 378.79 179.55C376.14 181.96 374.62 188.02 373.04 191.25C369.22 199.08 365.21 206.84 361.45 214.7C360.18 217.35 356.96 225.64 354.91 226.88C354.3 222.74 358.77 217.29 360.57 213.63C365.78 203.02 371.64 192.25 375.95 181.27C376.43 180.04 377.7 179.14 378.25 177.82C404.02 176.99 429.96 177.78 455.75 177.78C462.08 177.78 468.42 177.78 474.75 177.78C477.22 177.78 480.51 177.13 482.28 178.75C481.67 180.13 481.56 180.25 480.02 180.19ZM24 179.81C26.5 180.79 38.25 192.55 38.22 194.94C33.48 189.9 28.74 184.85 24 179.81ZM34.86 181.15C40.88 187.47 46.89 193.79 52.91 200.12C49.15 198.8 41.76 189.69 38.47 186.38C36.93 184.83 34.68 183.37 34.86 181.15ZM477.22 183.03C477.25 185.07 476.2 186.31 474.15 186.14C475.17 185.11 476.19 184.07 477.22 183.03ZM474.15 186.14C474.32 188.4 471.96 189.97 470.38 191.53C466.76 195.11 460.24 203.45 456.01 205.22C462.06 198.86 468.1 192.5 474.15 186.14ZM484 185.81C477.27 192.86 470.54 199.91 463.82 206.96C463.72 204.51 466.18 202.88 467.86 201.22C471.35 197.76 480.24 187.28 484 185.81ZM500.22 189.05C500.25 191.32 498.33 192.58 496.78 194.13C493.26 197.67 488.49 204.42 484.01 206.19C489.41 200.48 494.81 194.77 500.22 189.05ZM269.09 386.12C269.25 382.82 272.21 378.96 273.66 375.9C277.71 367.34 282.03 358.92 286.12 350.38C287.5 347.48 290.58 343.51 290.68 340.25C290.83 335.28 288.26 329.05 287.09 324.22C284.59 313.94 282.24 303.57 280.02 293.24C275.3 271.18 269.95 249.25 265.09 227.22C262.79 216.79 260.85 202.74 257.25 193.01C254.99 195.82 255.02 201.73 254.11 205.26C251.77 214.33 250.07 223.55 247.85 232.65C241.88 257.2 236.05 281.96 231.06 306.75C229.27 315.62 226.69 324.35 225.04 333.25C224.68 335.22 223.73 337.27 223.72 339.3C223.69 344.48 229.62 349.06 229.91 354.13C227.37 353.25 223.68 342.46 221.81 339.25C223.87 337.17 223.04 333.4 223.78 330.75C225.11 325.95 226.52 321.04 227.68 316.19C227.95 315.08 227.47 313.85 227.77 312.75C228.19 311.23 229.34 309.71 229.71 308.19C230.06 306.77 229.37 305.16 229.77 303.75C233.06 292.03 235.83 280 238.69 268.19C238.96 267.08 238.47 265.85 238.78 264.75C239.66 261.58 240.91 258.37 241.69 255.19C242.05 253.77 241.37 252.16 241.77 250.75C243.86 243.3 245.86 235.7 247.68 228.19C247.95 227.08 247.47 225.85 247.77 224.75C248.65 221.58 249.91 218.38 250.68 215.19C250.95 214.08 250.47 212.85 250.77 211.75C251.66 208.57 253.38 205.03 253.75 201.75C254.05 199.07 255.15 190.65 257.25 189.71C259.84 192.52 259.44 197.55 260.32 201.19C261.09 204.38 262.35 207.58 263.23 210.75C264.23 214.38 264.42 219.46 265.31 223.19C266.4 227.71 267.97 232.26 269.23 236.75C269.63 238.17 268.94 239.77 269.3 241.19C271.48 250.02 273.75 258.97 276.23 267.75C277.01 270.48 276.65 273.43 277.31 276.19C279.74 286.28 283.07 296.32 284.25 306.75C284.48 308.73 285.69 310.83 286.22 312.75C286.9 315.21 286.72 317.71 287.32 320.19C288.35 324.43 289.75 328.3 290.25 332.75C290.63 336.1 293.16 338.82 291.53 342.14C287.54 350.24 283.3 358.41 280.05 366.73C279.19 368.93 276.29 372.2 275.4 374.53C274.36 377.26 271.63 385.28 269.09 386.12ZM16.81 193.02C23.51 200.05 30.21 207.08 36.91 214.11C33.67 213.01 24.06 201.96 20.86 198.79C19.17 197.1 16.73 195.48 16.81 193.02ZM42.01 198.81C45.73 200.28 51.64 207.7 54.78 210.86C56.27 212.36 58.3 213.7 58.16 215.84C52.77 210.16 47.39 204.49 42.01 198.81ZM52.91 200.12C59.93 207.47 66.96 214.83 73.98 222.19C70.18 220.67 60.74 209.69 57.21 206.14C55.54 204.46 52.6 202.53 52.91 200.12ZM453.18 208.06C453.28 210.49 450.81 212.13 449.14 213.78C445.66 217.24 436.76 227.71 433.01 229.19C439.73 222.14 446.46 215.1 453.18 208.06ZM462.97 207.82C456.58 214.52 450.18 221.23 443.78 227.94C443.75 225.51 446.19 223.88 447.86 222.22C451.55 218.56 458.66 209.55 462.97 207.82ZM482.19 208.02C482.28 210.42 480.03 211.89 478.39 213.53C474.88 217.02 468.12 225.59 464 227.19C464.56 225.06 466.9 223.34 468.47 221.71C471.59 218.48 478.47 209.31 482.19 208.02ZM36.91 214.11C43.61 221.14 50.3 228.16 56.99 235.19C53.24 233.71 44.34 223.24 40.86 219.78C39.24 218.17 36.61 216.43 36.91 214.11ZM58.16 215.84C60.2 215.71 61.24 216.93 61.22 218.95C60.2 217.91 59.18 216.88 58.16 215.84ZM161.91 216.11C163.52 216.96 164.47 220.13 165.34 221.9C167.77 226.81 170.2 231.73 172.58 236.66C180.37 252.79 188.44 268.81 196.39 284.84C198.5 289.09 205.82 301.24 205.91 305.12C203.36 304.27 203.57 301.73 202.6 299.53C202.28 298.81 201.25 298.49 200.95 297.73C199.35 293.62 197.61 289.56 195.6 285.53C187.22 268.75 178.85 251.79 170.47 235.14C168.39 231.02 161.27 220.24 161.91 216.11ZM63.02 220.78C67.49 222.68 77.96 235.07 82.14 239.22C84 241.06 87.29 243.27 87.18 245.97C79.13 237.58 71.08 229.18 63.02 220.78ZM74.82 223.03C82.54 231.08 90.26 239.13 97.98 247.18C93.85 245.55 83.5 233.39 79.62 229.53C77.79 227.72 74.71 225.68 74.82 223.03ZM354.91 226.88C344.91 247.22 334.91 267.55 324.91 287.89C324.28 283.83 328.69 278.42 330.47 274.86C336.13 263.54 341.89 251.91 347.59 240.47C349.1 237.44 352.47 227.68 354.91 226.88ZM462.19 229.02C462.29 231.68 459.21 233.71 457.39 235.53C452.87 240.01 445.13 245.46 442.75 251.19C439.8 251.65 438.79 255.12 436.79 257.14C432.33 261.62 427.86 266.09 423.36 270.51C421.52 272.31 419.29 275.36 417.09 276.11C432.12 260.41 447.15 244.72 462.19 229.02ZM429.18 233.05C429.28 235.43 427.01 236.91 425.38 238.53C421.85 242.03 415.16 250.56 411.01 252.19C417.06 245.81 423.12 239.43 429.18 233.05ZM438.99 232.81C433.26 238.86 427.54 244.91 421.82 250.96C421.72 248.6 423.87 247.23 425.47 245.62C428.78 242.3 435.07 234.36 438.99 232.81ZM380.9 246.87C380.57 244.09 384.8 241.69 385.75 239C384.5 238.75 383.25 238.5 382 238.25C381.03 239.2 380.06 240.16 379.09 241.11C379.59 238.54 384.04 234.39 386.24 238.02C387.81 240.62 383.22 246.11 380.9 246.87ZM58.81 237.02C65.21 243.74 71.6 250.47 78 257.19C73.61 255.46 66.36 246.25 62.62 242.53C60.97 240.89 58.72 239.43 58.81 237.02ZM166.09 239.88C168.05 240.53 168.32 241.85 168.19 243.99C167.49 242.62 166.79 241.25 166.09 239.88ZM379.09 241.11C379.39 243.51 375.17 247.38 373.1 248.13C375.09 245.79 377.09 243.45 379.09 241.11ZM169 245.78C171.02 246.58 171.32 247.77 171.19 249.99C170.46 248.59 169.73 247.19 169 245.78ZM88.01 246.81C92.21 248.45 103.15 261.26 107.14 265.22C109 267.06 112.29 269.27 112.18 271.96C104.12 263.58 96.07 255.2 88.01 246.81ZM380.9 246.87C378.91 249.21 376.91 251.55 374.91 253.89C374.61 251.48 378.83 247.63 380.9 246.87ZM373.1 248.13C373.37 250.45 370.03 253.4 368 254.19C369.7 252.17 371.4 250.15 373.1 248.13ZM99.82 249.04C106.54 256.09 113.27 263.14 119.99 270.19C116.24 268.71 107.34 258.24 103.86 254.78C102.18 253.12 99.72 251.49 99.82 249.04ZM172.01 251.78C174.28 252.68 177.02 260.69 178.41 263.47C183.4 273.47 188.43 283.46 193.42 293.47C195.07 296.76 198.63 301.23 198.09 304.87C189.4 287.17 180.7 269.48 172.01 251.78ZM374.91 253.89C373.24 255.89 371.58 257.88 369.91 259.88C369.64 257.61 372.98 254.54 374.91 253.89ZM367.18 255.06C367.29 258.1 364 259.05 362.51 261.37C360.78 264.07 358.43 266.39 356.76 269.14C355.75 270.81 353.57 271.73 352.51 273.37C350.98 275.75 348.79 279.2 346.09 280.11C353.12 271.76 360.15 263.41 367.18 255.06ZM408.18 255.04C408.28 257.59 405.52 259.39 403.79 261.14C400.28 264.68 390.8 275.68 387.02 277.18C394.07 269.8 401.13 262.42 408.18 255.04ZM418 254.81C411.6 261.53 405.21 268.24 398.82 274.96C398.72 272.51 401.18 270.88 402.86 269.22C406.55 265.56 413.67 256.51 418 254.81ZM139.88 262.09C137.74 262.36 135.8 260.17 135 258.25C133.67 258.24 132.34 258.23 131.01 258.22C132.38 253.83 139.14 259.68 139.88 262.09ZM78.81 258.01C79.82 259.06 80.84 260.11 81.85 261.15C79.79 261.31 78.73 260.07 78.81 258.01ZM369.91 259.88C366.24 264.21 362.58 268.55 358.91 272.89C358.66 270.87 367.68 260.67 369.91 259.88ZM81.85 261.15C87.9 267.5 93.94 273.84 99.99 280.19C95.85 278.54 89.15 270.03 85.62 266.53C84.04 264.97 81.69 263.4 81.85 261.15ZM139.88 262.09C142.88 264.76 145.89 267.42 148.89 270.08C146.26 270.43 140.7 264.41 139.88 262.09ZM133.02 262.81C135.43 262.72 136.89 264.97 138.52 266.63C142.14 270.34 149.33 273.95 151.13 278.9C145.09 273.54 139.05 268.18 133.02 262.81ZM327.08 268.1C326.82 269.49 326.55 270.87 326.28 272.25C325 273.78 325.03 275.49 323.09 276.1C324.42 273.44 325.75 270.77 327.08 268.1ZM148.89 270.08C151.89 272.75 154.9 275.42 157.9 278.08C155.27 278.43 149.66 272.4 148.89 270.08ZM122.82 273.04C129.54 280.09 136.27 287.14 142.99 294.19C139.25 292.72 130.35 282.24 126.86 278.78C125.18 277.12 122.72 275.49 122.82 273.04ZM358.91 272.89C357.24 274.89 355.57 276.88 353.91 278.88C353.63 276.61 356.98 273.54 358.91 272.89ZM116 275.81C119.96 277.37 129.85 288.92 133.53 292.61C135.31 294.41 138.29 296.34 138.18 298.96C130.79 291.24 123.4 283.53 116 275.81ZM323.09 276.1C323.33 277.62 323.39 278.11 322.25 279C322.24 280.8 321.6 281.62 320.09 282.12C321.09 280.12 322.09 278.11 323.09 276.1ZM417.09 276.11C417.39 278.44 414.76 280.17 413.14 281.78C409.97 284.93 400.27 296.04 397.08 297.1C403.75 290.1 410.42 283.11 417.09 276.11ZM157.9 278.08C160.27 278.6 166.22 283.7 166.89 286.09C164.27 286.43 158.66 280.39 157.9 278.08ZM151.13 278.9C153.74 278.6 159.34 284.62 160.1 286.92C157.11 284.25 154.12 281.58 151.13 278.9ZM353.91 278.88C351.91 281.22 349.91 283.55 347.91 285.89C347.6 283.48 351.83 279.62 353.91 278.88ZM385.18 279.04C385.28 281.49 382.82 283.12 381.14 284.78C378.2 287.7 367.78 296.32 367.2 299.75C366.47 299.89 365.75 300.04 365.02 300.18C371.74 293.14 378.46 286.09 385.18 279.04ZM346.09 280.11C346.39 282.52 342.18 286.36 340.1 287.13C342.09 284.79 344.09 282.45 346.09 280.11ZM394 279.81C387.95 286.16 381.9 292.5 375.86 298.85C375.68 296.6 378.05 295.03 379.62 293.47C383.15 289.97 389.85 281.44 394 279.81ZM101.82 282.05C107.87 288.43 113.92 294.81 119.97 301.18C119.25 301.04 118.53 300.89 117.81 300.75C116.79 294.85 101.58 287.74 101.82 282.05ZM320.09 282.12C320.65 285.74 317.1 289.99 315.53 293.14C311.52 301.19 307.45 309.42 303.42 317.53C302.11 320.15 299.13 328.47 297.09 329.11C297.02 325.41 300.77 320.12 302.52 316.76C306.64 308.81 310.33 300.63 314.4 292.64C315.79 289.91 317.57 283.54 320.09 282.12ZM166.89 286.09C169.89 288.75 172.9 291.42 175.9 294.08C173.28 294.43 167.67 288.4 166.89 286.09ZM347.91 285.89C342.58 292.23 337.25 298.56 331.92 304.9C331.6 302.51 334.27 300.9 335.88 299.23C338.85 296.16 344.29 287.11 347.91 285.89ZM160.1 286.92C162.38 286.61 163.96 289.03 165.52 290.62C169.31 294.48 176.16 297.95 178.22 303C172.18 297.64 166.14 292.28 160.1 286.92ZM340.1 287.13C340.36 289.4 337.02 292.44 335.09 293.12C336.76 291.12 338.43 289.13 340.1 287.13ZM324.91 287.89C323.91 289.89 322.91 291.89 321.91 293.89C321.68 292.37 321.61 291.88 322.75 291C322.76 289.19 323.4 288.38 324.91 287.89ZM335.09 293.12C335.37 295.39 332.03 298.47 330.08 299.11C331.75 297.11 333.42 295.11 335.09 293.12ZM175.9 294.08C178.89 296.75 181.88 299.43 184.87 302.1C182.25 302.4 176.66 296.38 175.9 294.08ZM321.91 293.89C317.32 303.84 312.73 313.8 308.13 323.75C309.79 322.21 311.44 320.67 313.1 319.13C313.22 320.14 307.4 327.85 306.73 328.05C305.79 328.33 305.66 328.03 304.82 327.75C305.25 323.05 314.92 306.83 317.6 301.47C318.8 299.06 319.49 294.67 321.91 293.89ZM397.08 297.1C397.35 299.11 396.12 300.32 394.13 300.13C395.11 299.12 396.1 298.11 397.08 297.1ZM146.82 298.05C152.88 304.43 158.94 310.81 164.99 317.19C160.83 315.54 154.16 307.04 150.62 303.53C148.99 301.91 146.72 300.43 146.82 298.05ZM330.08 299.11C330.41 301.56 326.19 305.33 324.02 306.18C326.04 303.82 328.06 301.46 330.08 299.11ZM375.86 298.85C374.84 299.89 373.83 300.93 372.81 301.98C372.74 299.92 373.8 298.69 375.86 298.85ZM394.13 300.13C394.32 302.18 392.58 303.36 391.14 304.78C387.75 308.15 383.29 314.51 379 316.19C384.04 310.84 389.09 305.49 394.13 300.13ZM140.02 300.81C144.36 302.54 151.43 311.55 155.14 315.22C156.82 316.88 159.28 318.51 159.18 320.95C152.79 314.24 146.41 307.53 140.02 300.81ZM364.18 301.04C364.28 303.4 362.13 304.77 360.53 306.38C357.3 309.63 349.75 318.9 346.08 320.1C352.12 313.75 358.15 307.39 364.18 301.04ZM120.82 302.04C126.52 308.06 132.22 314.09 137.91 320.11C134.31 318.87 127.37 310.29 124.22 307.14C122.67 305.58 120.72 304.32 120.82 302.04ZM184.87 302.1C190.87 307.43 196.87 312.77 202.87 318.1C200.6 318.36 199.03 315.95 197.48 314.37C193.85 310.64 186.7 307.07 184.87 302.1ZM370.99 303.81C365.61 309.49 360.24 315.18 354.86 320.86C354.68 318.71 356.72 317.36 358.22 315.86C361.35 312.71 367.27 305.28 370.99 303.81ZM180.06 304.78C182.76 304.75 187.24 309.6 188.19 311.99C185.48 309.59 182.77 307.18 180.06 304.78ZM198.09 304.87C199.83 305.47 206.38 319.21 205.75 321.19C204.79 320.16 203.83 319.13 202.87 318.1C204.3 316.15 198.27 307.95 198.09 304.87ZM331.92 304.9C330.25 306.89 328.58 308.88 326.91 310.88C326.63 308.62 329.98 305.52 331.92 304.9ZM323.18 307.06C323.27 309.43 320.11 312.37 318.1 313.14C319.79 311.11 321.49 309.08 323.18 307.06ZM326.91 310.88C324.91 313.22 322.91 315.55 320.91 317.89C320.6 315.49 324.83 311.62 326.91 310.88ZM189.05 312.82C191.68 312.72 196.34 317.64 197.11 319.91C194.42 317.55 191.73 315.18 189.05 312.82ZM318.1 313.14C318.36 315.41 315.02 318.43 313.1 319.13C314.76 317.13 316.43 315.14 318.1 313.14ZM320.91 317.89C319.25 319.89 317.58 321.89 315.91 323.89C315.62 321.61 318.97 318.55 320.91 317.89ZM137.91 320.11C145.27 327.8 152.63 335.49 159.98 343.19C156.02 341.6 146.15 330.09 142.47 326.39C140.75 324.66 137.59 322.59 137.91 320.11ZM197.11 319.91C199.7 319.58 204.29 324.73 205.22 327C202.51 324.64 199.81 322.27 197.11 319.91ZM346.08 320.1C346.4 322.53 343.46 324.45 341.79 326.14C338.27 329.68 328.8 340.7 325.01 342.19C332.03 334.83 339.06 327.46 346.08 320.1ZM168.82 321.05C175.87 328.43 182.93 335.81 189.98 343.18C186.16 341.66 176.76 330.7 173.21 327.14C171.48 325.4 168.72 323.59 168.82 321.05ZM354.86 320.86C347.85 328.23 340.83 335.6 333.82 342.97C333.72 340.57 335.97 339.1 337.62 337.47C341.63 333.48 345.63 329.47 349.65 325.49C351.42 323.75 352.18 320.63 354.86 320.86ZM374.22 321.05C374.25 323.41 361.56 336.17 359.02 337.18C364.09 331.81 369.15 326.43 374.22 321.05ZM161.01 322.81C163.43 323.77 175.32 335.69 175.14 337.86C170.43 332.84 165.72 327.83 161.01 322.81ZM315.91 323.89C314.24 325.89 312.58 327.88 310.91 329.88C310.63 327.61 313.97 324.55 315.91 323.89ZM207.08 328.78C212.72 328.74 215.58 338.95 217.53 342.86C224.44 356.71 231.34 371.39 238.43 385.63C240.17 389.11 241.42 392.93 243.41 396.47C243.86 397.27 245.14 397.72 245.23 398.75C245.28 399.43 244.94 399.61 244.75 400.19C242.18 399.94 233.72 391.61 233.82 389.04C236.46 391.51 239.11 393.98 241.75 396.46C241.7 393.14 234.91 381.35 233.06 377.67C226.38 364.42 220.19 350.96 213.61 337.66C211.82 334.06 207.98 330.89 207.08 328.78ZM310.91 329.88C307.24 334.22 303.58 338.55 299.91 342.89C299.66 340.86 308.68 330.66 310.91 329.88ZM175.14 337.86C177.18 337.69 178.27 338.91 178.18 340.96C177.17 339.93 176.16 338.89 175.14 337.86ZM358.18 338.04C358.28 340.43 356.02 341.9 354.38 343.53C350.87 347.03 344.14 355.57 340 357.19C346.06 350.81 352.12 344.42 358.18 338.04ZM299.91 342.89C299.31 345.82 295.77 348.69 294.3 351.53C290.24 359.37 286.46 367.41 282.61 375.36C281.4 377.86 280.05 382.54 277.81 383.98C277.63 380.53 280.1 377.58 281.57 374.63C285.22 367.32 288.86 359.86 292.59 352.47C294.21 349.23 296.34 344.1 299.91 342.89ZM181.01 343.81C184.78 345.31 193.64 355.74 197.14 359.22C198.83 360.89 201.26 362.52 201.22 364.96C194.48 357.91 187.75 350.86 181.01 343.81ZM323.18 344.04C323.26 346.08 322.2 347.29 320.16 347.16C321.17 346.12 322.17 345.08 323.18 344.04ZM161.81 345.03C167.85 351.39 173.88 357.75 179.91 364.11C176.17 362.82 168.75 353.68 165.47 350.38C163.86 348.76 161.73 347.4 161.81 345.03ZM191.82 345.03C198.85 352.39 205.88 359.75 212.91 367.11C209.62 365.97 199.46 354.41 196.21 351.14C194.47 349.39 191.72 347.59 191.82 345.03ZM332 344.81C324.94 352.2 317.87 359.59 310.81 366.97C310.72 364.41 313.47 362.62 315.21 360.86C318.72 357.33 328.23 346.27 332 344.81ZM320.16 347.16C320.3 349.3 318.27 350.64 316.78 352.14C313.64 355.29 307.73 362.72 304.01 364.19C309.39 358.51 314.78 352.83 320.16 347.16ZM229.91 354.13C239.02 372.29 248.14 390.44 257.25 408.59C261.2 401.1 265.14 393.61 269.09 386.12C269.72 390.28 262.61 401 260.53 405.14C259.37 407.44 259.25 409.87 256.25 410.17C252.98 402.42 248.61 394.99 244.95 387.69C242.3 382.41 240.29 376.97 237.58 371.53C235.56 367.49 229.32 358.06 229.91 354.13ZM338.18 359.04C338.28 361.49 335.82 363.12 334.14 364.78C330.89 368 321.39 378.97 318.09 380.11C324.79 373.09 331.48 366.06 338.18 359.04ZM179.91 364.11C187.27 371.8 194.63 379.5 201.99 387.19C198.06 385.64 188.13 374.06 184.47 370.38C182.75 368.66 179.59 366.59 179.91 364.11ZM212.91 367.11C219.27 373.8 225.64 380.5 232 387.19C227.69 385.51 220.54 376.43 216.86 372.79C215.24 371.18 212.61 369.43 212.91 367.11ZM300.22 368.07C300.25 370.44 288.49 382.22 286 383.19C290.74 378.15 295.48 373.11 300.22 368.07ZM205 368.81C208.9 370.33 215.24 378.31 218.53 381.62C220.14 383.23 222.28 384.61 222.19 386.98C216.46 380.92 210.73 374.87 205 368.81ZM308.99 368.81C303.27 374.86 297.54 380.91 291.82 386.96C291.72 384.6 293.87 383.22 295.47 381.61C298.78 378.3 305.09 370.34 308.99 368.81ZM318.09 380.11C318.34 382.11 317.12 383.31 315.14 383.14C316.12 382.13 317.1 381.12 318.09 380.11ZM315.14 383.14C315.34 385.36 313.07 386.84 311.53 388.38C308.23 391.69 301.9 399.67 298 401.19C303.71 395.17 309.43 389.16 315.14 383.14ZM277 385.78C275.75 389.1 274.5 392.41 273.25 395.73C275.89 393.17 278.54 390.61 281.18 388.05C281.28 390.6 272.74 398.73 270.25 400.19C269.95 399.35 269.52 398.73 269.77 397.75C270.06 396.68 271.1 396.36 271.6 395.47C273.1 392.82 273.88 390.01 274.95 387.27C275.31 386.34 276.31 386.05 277 385.78ZM223.01 387.81C226.89 389.34 233.24 397.31 236.53 400.62C238.14 402.23 240.28 403.6 240.18 405.97C234.46 399.92 228.73 393.86 223.01 387.81ZM290.99 387.81C286.27 392.86 281.54 397.9 276.82 402.94C276.73 400.6 288.51 388.79 290.99 387.81ZM203.81 389.03C211.21 396.75 218.6 404.47 225.99 412.19C222.08 410.65 212.12 399.06 208.47 395.38C206.68 393.58 203.72 391.66 203.81 389.03ZM296.18 403.03C296.27 405.09 295.18 406.32 293.13 406.13C294.15 405.1 295.17 404.06 296.18 403.03ZM273.99 405.81C272.98 409.18 265.11 416.21 262.25 419.01C260.99 420.24 259.55 422.12 257.69 422.34C254.56 422.69 242.75 410.69 242 407.81C246.34 412.12 250.67 416.44 255 420.75C256.33 420.75 257.67 420.75 259 420.75C264 415.77 269 410.79 273.99 405.81ZM293.13 406.13C293.33 408.29 291.28 409.63 289.78 411.14C286.66 414.27 280.7 421.76 277 423.19C282.38 417.5 287.76 411.82 293.13 406.13ZM226.81 413.02C227.83 414.07 228.84 415.11 229.85 416.15C227.8 416.3 226.74 415.08 226.81 413.02ZM229.85 416.15C235.89 422.5 241.94 428.84 247.98 435.18C243.82 433.53 237.16 425.04 233.62 421.53C232.05 419.97 229.68 418.4 229.85 416.15ZM275.19 425.01C275.26 427.08 274.2 428.33 272.13 428.14C273.15 427.09 274.17 426.05 275.19 425.01ZM272.13 428.14C272.34 430.39 269.96 431.96 268.38 433.53C264.23 437.66 259.82 443.64 253.47 440.42C251.96 439.66 251.4 439.55 250.81 438C253.42 438.57 255.46 440.43 258.46 439.71C264.62 438.25 266.68 429.83 272.13 428.14Z" fill="#8c8c8c" fill-rule="evenodd" stroke="#8c8c8c" stroke-width="0.25" stroke-linejoin="round"/>
</svg>