<?xml version="1.0" encoding="UTF-8"?>
<svg xmlns="http://www.w3.org/2000/svg" viewBox="0 0 589 593" width="589" height="593">
<path d="M306.99 19.86C307.58 19.91 308.16 19.95 308.75 20C308.99 20.37 309.22 20.74 309.46 21.11C310.67 21.73 311.87 22.35 313.08 22.97C313.64 22.98 314.19 22.99 314.75 23C315.25 23.67 315.75 24.33 316.25 25C316.75 25 317.25 25 317.75 25C318.03 25.39 318.3 25.78 318.58 26.16C321.74 27.75 324.9 29.34 328.06 30.93C328.18 30.99 328.31 31.05 328.43 31.11C331.3 32.71 334.18 34.31 337.05 35.91C337.2 35.99 337.36 36.06 337.52 36.13C338.7 36.74 339.88 37.34 341.07 37.94C341.63 37.96 342.19 37.98 342.75 38C342.92 38.33 343.08 38.67 343.25 39C343.75 39 344.25 39 344.75 39C344.85 39.3 344.94 39.6 345.04 39.91C350.05 42.6 355.06 45.29 360.08 47.98C360.64 47.99 361.19 47.99 361.75 48C361.86 48.31 361.97 48.62 362.08 48.93C364.4 50.26 366.73 51.59 369.05 52.92C369.62 52.94 370.18 52.97 370.75 53C370.92 53.33 371.08 53.67 371.25 54C371.75 54 372.25 54 372.75 54C372.92 54.33 373.08 54.67 373.25 55C373.75 55 374.25 55 374.75 55C374.85 55.3 374.94 55.61 375.04 55.91C380.04 58.58 385.05 61.26 390.06 63.93C390.62 63.95 391.19 63.98 391.75 64C391.84 64.3 391.93 64.61 392.02 64.91C394.36 66.24 396.71 67.57 399.05 68.91C399.62 68.94 400.18 68.97 400.75 69C400.98 69.37 401.2 69.74 401.43 70.11C403.29 71.07 405.16 72.03 407.02 72.99C410.7 74.97 414.37 76.94 418.05 78.92C418.62 78.94 419.18 78.97 419.75 79C419.86 79.31 419.97 79.62 420.09 79.92C422.41 81.26 424.73 82.59 427.06 83.92C427.62 83.94 428.19 83.97 428.75 84C428.89 84.31 429.02 84.61 429.16 84.92C431.79 86.28 434.43 87.64 437.06 89C440.05 90.64 443.05 92.27 446.04 93.91C446.19 93.98 446.34 94.05 446.48 94.11C448.35 95.07 450.22 96.03 452.09 96.99C452.31 96.99 452.53 97 452.75 97C452.92 97.33 453.08 97.67 453.25 98C453.75 98 454.25 98 454.75 98C455.01 98.38 455.26 98.75 455.52 99.13C458.7 100.75 461.88 102.38 465.06 104C467.37 105.29 469.69 106.58 472 107.87C472.58 107.91 473.17 107.96 473.75 108C473.99 108.37 474.23 108.74 474.46 109.11C475.67 109.74 476.88 110.36 478.08 110.98C478.64 110.98 479.19 110.99 479.75 111C480.25 111.67 480.75 112.33 481.25 113C481.75 113 482.25 113 482.75 113C483.01 113.38 483.27 113.76 483.54 114.14C486.72 115.77 489.9 117.39 493.07 119.01C495.39 120.3 497.7 121.59 500.01 122.88C500.59 122.92 501.17 122.96 501.75 123C502 123.38 502.26 123.76 502.51 124.13C503.7 124.74 504.89 125.35 506.07 125.95C506.63 125.97 507.19 125.98 507.75 126C507.87 126.31 507.99 126.63 508.12 126.94C512.43 129.29 516.75 131.65 521.07 134.01C522.41 134.67 523.74 135.33 525.08 135.99C525.64 136 526.19 136 526.75 136C526.84 136.3 526.93 136.61 527.01 136.91C529.37 138.25 531.72 139.6 534.07 140.94C534.63 140.96 535.19 140.98 535.75 141C535.92 141.33 536.08 141.67 536.25 142C536.75 142 537.25 142 537.75 142C537.84 142.3 537.92 142.6 538.01 142.9C543.03 145.59 548.05 148.27 553.07 150.95C553.63 150.97 554.19 150.98 554.75 151C554.87 151.32 554.99 151.63 555.12 151.95C558.1 153.61 561.08 155.26 564.06 156.92C564.63 156.95 565.19 156.97 565.75 157C565.87 157.31 565.99 157.61 566.11 157.92C569.32 159.86 572.52 161.81 575.73 163.75C573.16 165.4 567.88 164.47 564.75 164.48C555.42 164.49 546.08 164.47 536.75 164.47C501.92 164.47 467.08 164.46 432.25 164.46C336.25 164.46 240.25 164.46 144.25 164.46C113.92 164.46 83.58 164.46 53.25 164.46C43.58 164.46 33.92 164.45 24.25 164.48C19.71 164.5 14.47 165.22 10.04 164.25C13.36 162.13 16.68 160.02 19.99 157.9C20.08 157.6 20.16 157.3 20.25 157C20.75 157 21.25 157 21.75 157C21.92 156.67 22.08 156.33 22.25 156C22.81 155.98 23.38 155.95 23.94 155.93C25.77 155.01 27.6 154.08 29.43 153.16C30.04 152.44 30.64 151.72 31.25 151C31.81 150.99 32.36 150.99 32.92 150.98C34.91 150 36.91 149.02 38.9 148.05C42.57 146 46.23 143.95 49.9 141.91C50.02 141.61 50.13 141.3 50.25 141C50.81 140.99 51.37 140.97 51.92 140.96C53.78 140.02 55.63 139.07 57.49 138.13C57.65 138.05 57.8 137.98 57.96 137.91C60.29 136.58 62.62 135.26 64.95 133.93C65.05 133.62 65.15 133.31 65.25 133C65.81 132.98 66.37 132.96 66.93 132.94C70.61 130.93 74.29 128.92 77.97 126.91C78.07 126.6 78.16 126.3 78.25 126C80.25 125 82.25 124 84.25 123C84.82 122.97 85.39 122.93 85.96 122.9C88.29 121.58 90.63 120.25 92.96 118.93C93.06 118.62 93.15 118.31 93.25 118C93.81 117.98 94.37 117.97 94.93 117.95C97.46 116.67 99.98 115.4 102.51 114.12C102.76 113.75 103 113.37 103.25 113C103.84 112.95 104.42 112.91 105.01 112.86C106.65 111.88 108.3 110.9 109.95 109.92C110.05 109.61 110.15 109.31 110.25 109C110.75 109 111.25 109 111.75 109C111.92 108.67 112.08 108.33 112.25 108C112.82 107.96 113.4 107.93 113.97 107.89C116.31 106.59 118.65 105.29 120.99 104C124.18 102.37 127.37 100.74 130.55 99.11C130.79 98.74 131.02 98.37 131.25 98C131.84 97.95 132.42 97.91 133.01 97.86C134.66 96.88 136.31 95.9 137.96 94.91C138.06 94.61 138.15 94.3 138.25 94C138.81 93.98 139.37 93.97 139.93 93.95C145.58 90.94 151.24 87.92 156.9 84.91C157.02 84.61 157.13 84.3 157.25 84C157.75 84 158.25 84 158.75 84C158.92 83.67 159.08 83.33 159.25 83C159.83 82.96 160.4 82.92 160.98 82.88C163.18 81.62 165.38 80.36 167.58 79.1C167.7 79.04 167.82 78.99 167.93 78.94C173.58 75.93 179.23 72.92 184.88 69.91C185.01 69.61 185.13 69.3 185.25 69C185.81 68.98 186.37 68.95 186.93 68.93C189.92 67.3 192.91 65.67 195.9 64.03C201.59 60.99 207.28 57.95 212.97 54.91C213.06 54.6 213.16 54.3 213.25 54C213.75 54 214.25 54 214.75 54C214.92 53.67 215.08 53.33 215.25 53C215.81 52.98 216.37 52.96 216.94 52.94C219.29 51.59 221.64 50.25 223.98 48.91C224.07 48.61 224.16 48.3 224.25 48C224.81 48 225.36 48 225.92 47.99C231.58 44.97 237.25 41.94 242.91 38.92C243.02 38.61 243.14 38.31 243.25 38C243.75 38 244.25 38 244.75 38C244.92 37.67 245.08 37.33 245.25 37C245.75 37 246.25 37 246.75 37C246.92 36.67 247.08 36.33 247.25 36C247.81 35.98 248.37 35.95 248.93 35.93C251.92 34.28 254.91 32.62 257.89 30.97C258.01 30.64 258.13 30.32 258.25 30C258.81 29.98 259.38 29.95 259.94 29.93C262.46 28.66 264.98 27.39 267.5 26.12C268.97 24.18 276.53 20.14 278.97 19.9C281.31 18.57 283.65 17.24 285.99 15.92C286.08 15.61 286.16 15.31 286.25 15C286.81 14.98 287.37 14.96 287.93 14.95C289.72 14.69 291.42 12.99 293.24 13.07C296.99 13.24 303.16 18.46 306.99 19.86ZM65.95 178.29C217.33 178.29 368.7 178.29 520.08 178.29C520.08 189.01 520.08 199.74 520.08 210.46C368.7 210.46 217.33 210.46 65.95 210.46C65.95 199.74 65.95 189.01 65.95 178.29ZM101.04 223.93C119.4 223.93 137.75 223.93 156.11 223.93C156.11 309.94 156.11 395.96 156.11 481.97C137.75 481.97 119.4 481.97 101.04 481.97C101.04 395.96 101.04 309.94 101.04 223.93ZM265.79 223.94C265.79 309.95 265.79 395.96 265.79 481.97C247.3 481.97 228.82 481.97 210.34 481.97C210.34 395.96 210.34 309.95 210.34 223.94C228.82 223.94 247.3 223.94 265.79 223.94ZM375.52 223.93C375.52 309.95 375.52 395.96 375.52 481.97C357.13 481.97 338.74 481.97 320.35 481.97C320.35 395.96 320.35 309.95 320.35 223.93C338.74 223.93 357.13 223.93 375.52 223.93ZM429.88 223.93C448.24 223.93 466.59 223.93 484.95 223.93C484.95 309.95 484.95 395.96 484.95 481.97C466.59 481.97 448.24 481.97 429.88 481.97C429.88 395.96 429.88 309.95 429.88 223.93ZM521.57 495.95C521.57 506.6 521.57 517.25 521.57 527.89C514.11 529.99 496.79 528.35 488.25 528.39C464.42 528.5 440.58 528.41 416.75 528.41C339.75 528.41 262.75 528.41 185.75 528.41C157.25 528.41 128.75 528.42 100.25 528.42C92.25 528.42 84.25 528.39 76.25 528.42C72.63 528.44 67.84 529.26 64.51 527.79C64.51 517.18 64.51 506.57 64.51 495.95C216.87 495.95 369.22 495.95 521.57 495.95ZM556.73 542C556.73 552.78 556.73 563.55 556.73 574.33C380.91 574.33 205.1 574.33 29.28 574.33C29.28 563.55 29.28 552.78 29.28 542C205.1 542 380.91 542 556.73 542Z" fill="#ffffff" fill-rule="evenodd" stroke="#ffffff" stroke-width="0.25" stroke-linejoin="round"/>
<path d="M306.99 19.86C303.16 18.46 296.99 13.24 293.24 13.07C291.42 12.99 289.72 14.69 287.93 14.95C290.64 8.67 305.05 15.54 306.99 19.86ZM285.99 15.92C283.65 17.24 281.31 18.57 278.97 19.9C279.89 17.8 283.77 16.01 285.99 15.92ZM309.46 21.11C311.42 20.82 312.34 21.18 313.08 22.97C311.87 22.35 310.67 21.73 309.46 21.11ZM267.5 26.12C264.98 27.39 262.46 28.66 259.94 29.93C260.99 27.55 263.61 27.73 265.25 25.98C266 26.03 266.75 26.08 267.5 26.12ZM318.58 26.16C319.3 26.11 320.03 26.05 320.75 25.99C322.78 28.19 326.76 27.99 328.06 30.93C324.9 29.34 321.74 27.75 318.58 26.16ZM257.89 30.97C254.91 32.62 251.92 34.28 248.93 35.93C250.02 33.39 253.41 33.13 255.25 30.98C256.13 30.97 257.01 30.97 257.89 30.97ZM328.43 31.11C329.2 31.07 329.98 31.02 330.75 30.98C332.57 32.87 335.96 33.41 337.05 35.91C334.18 34.31 331.3 32.71 328.43 31.11ZM337.52 36.13C339.43 35.82 340.32 36.2 341.07 37.94C339.88 37.34 338.7 36.74 337.52 36.13ZM242.91 38.92C237.25 41.94 231.58 44.97 225.92 47.99C226.75 45.97 240.47 39 242.91 38.92ZM345.04 39.91C347.5 39.97 359.16 45.75 360.08 47.98C355.06 45.29 350.05 42.6 345.04 39.91ZM223.98 48.91C221.64 50.25 219.29 51.59 216.94 52.94C217.85 50.81 221.73 48.98 223.98 48.91ZM362.08 48.93C364.3 49 368.14 50.82 369.05 52.92C366.73 51.59 364.4 50.26 362.08 48.93ZM212.97 54.91C207.28 57.95 201.59 60.99 195.9 64.03C196.78 61.91 210.46 55.01 212.97 54.91ZM375.04 55.91C377.34 55.94 389.15 61.82 390.06 63.93C385.05 61.26 380.04 58.58 375.04 55.91ZM195.9 64.03C192.91 65.67 189.92 67.3 186.93 68.93C188.17 65.97 192.26 66.22 194.25 64.01C194.8 64.02 195.35 64.03 195.9 64.03ZM392.02 64.91C394.24 65 398.15 66.81 399.05 68.91C396.71 67.57 394.36 66.24 392.02 64.91ZM184.88 69.91C179.23 72.92 173.58 75.93 167.93 78.94C168.85 76.8 182.36 69.95 184.88 69.91ZM401.43 70.11C403.64 69.79 406.28 70.83 407.02 72.99C405.16 72.03 403.29 71.07 401.43 70.11ZM407.02 72.99C409.7 72.95 416.93 76.4 418.05 78.92C414.37 76.94 410.7 74.97 407.02 72.99ZM167.58 79.1C165.38 80.36 163.18 81.62 160.98 82.88C161.4 82.25 161.83 81.63 162.25 81.01C162.92 80.67 163.58 80.34 164.25 80.01C164.75 79.91 165.25 79.81 165.75 79.72C165.92 79.48 166.08 79.24 166.25 79C166.69 79.03 167.14 79.06 167.58 79.1ZM420.09 79.92C422.29 80.02 426.17 81.85 427.06 83.92C424.73 82.59 422.41 81.26 420.09 79.92ZM156.9 84.91C151.24 87.92 145.58 90.94 139.93 93.95C140.89 91.65 154.1 84.98 156.9 84.91ZM429.16 84.92C430.02 84.94 430.89 84.96 431.75 84.99C433.42 86.74 436.11 86.54 437.06 89C434.43 87.64 431.79 86.28 429.16 84.92ZM437.06 89C439.49 88.98 445.03 91.64 446.04 93.91C443.05 92.27 440.05 90.64 437.06 89ZM446.48 94.11C448.7 93.75 451.23 94.88 452.09 96.99C450.22 96.03 448.35 95.07 446.48 94.11ZM137.96 94.91C136.31 95.9 134.66 96.88 133.01 97.86C133.42 97.24 133.84 96.62 134.25 96C134.75 95.91 135.25 95.82 135.75 95.73C135.92 95.49 136.08 95.25 136.25 95.02C136.82 94.98 137.39 94.95 137.96 94.91ZM130.55 99.11C127.37 100.74 124.18 102.37 120.99 104C121.96 101.02 126.24 101.11 128.25 98.97C129.02 99.02 129.79 99.06 130.55 99.11ZM455.52 99.13C456.26 99.08 457.01 99.03 457.75 98.98C459.8 101.18 463.88 101 465.06 104C461.88 102.38 458.7 100.75 455.52 99.13ZM120.99 104C118.65 105.29 116.31 106.59 113.97 107.89C114.9 105.81 118.81 103.95 120.99 104ZM465.06 104C465.96 103.99 466.85 103.99 467.75 103.98C469.17 105.27 470.58 106.57 472 107.87C469.69 106.58 467.37 105.29 465.06 104ZM474.46 109.11C476.42 108.82 477.34 109.19 478.08 110.98C476.88 110.36 475.67 109.74 474.46 109.11ZM109.95 109.92C108.3 110.9 106.65 111.88 105.01 112.86C105.42 112.24 105.84 111.62 106.25 111C106.75 110.91 107.25 110.82 107.75 110.73C107.92 110.5 108.08 110.26 108.25 110.03C108.82 109.99 109.38 109.95 109.95 109.92ZM102.51 114.12C99.98 115.4 97.46 116.67 94.93 117.95C95.96 115.56 98.6 115.72 100.25 113.98C101 114.03 101.76 114.08 102.51 114.12ZM483.54 114.14C484.27 114.09 485.01 114.04 485.75 113.99C487.81 116.22 491.84 115.98 493.07 119.01C489.9 117.39 486.72 115.77 483.54 114.14ZM92.96 118.93C90.63 120.25 88.29 121.58 85.96 122.9C86.88 120.82 90.75 119.04 92.96 118.93ZM493.07 119.01C493.97 119 494.86 118.99 495.75 118.98C497.17 120.28 498.59 121.58 500.01 122.88C497.7 121.59 495.39 120.3 493.07 119.01ZM502.51 124.13C504.44 123.83 505.33 124.2 506.07 125.95C504.89 125.35 503.7 124.74 502.51 124.13ZM77.97 126.91C74.29 128.92 70.61 130.93 66.93 132.94C68.05 130.4 75.24 126.97 77.97 126.91ZM508.12 126.94C510.39 126.99 520.27 132.01 521.07 134.01C516.75 131.65 512.43 129.29 508.12 126.94ZM64.95 133.93C62.62 135.26 60.29 136.58 57.96 137.91C59.39 136.59 60.82 135.28 62.25 133.97C63.15 133.96 64.05 133.94 64.95 133.93ZM521.07 134.01C523.16 133.9 524.27 134 525.08 135.99C523.74 135.33 522.41 134.67 521.07 134.01ZM527.01 136.91C529.28 136.97 533.16 138.82 534.07 140.94C531.72 139.6 529.37 138.25 527.01 136.91ZM57.49 138.13C55.63 139.07 53.78 140.02 51.92 140.96C52.79 138.88 55.3 137.76 57.49 138.13ZM49.9 141.91C46.23 143.95 42.57 146 38.9 148.05C40 145.47 47.13 141.99 49.9 141.91ZM538.01 142.9C540.4 143 552.19 148.89 553.07 150.95C548.05 148.27 543.03 145.59 538.01 142.9ZM38.9 148.05C36.91 149.02 34.91 150 32.92 150.98C33.88 148.64 36.51 147.87 38.9 148.05ZM555.12 151.95C557.57 152 563.1 154.64 564.06 156.92C561.08 155.26 558.1 153.61 555.12 151.95ZM29.43 153.16C27.6 154.08 25.77 155.01 23.94 155.93C24.82 153.89 27.28 152.79 29.43 153.16ZM19.99 157.9C16.68 160.02 13.36 162.13 10.04 164.25C14.47 165.22 19.71 164.5 24.25 164.48C33.92 164.45 43.58 164.46 53.25 164.46C83.58 164.46 113.92 164.46 144.25 164.46C240.25 164.46 336.25 164.46 432.25 164.46C467.08 164.46 501.92 164.47 536.75 164.47C546.08 164.47 555.42 164.49 564.75 164.48C567.88 164.47 573.16 165.4 575.73 163.75C572.52 161.81 569.32 159.86 566.11 157.92C567.81 157.94 577.05 162.07 577.93 163.35C578.34 163.95 578.05 165.09 578.02 165.75C388.01 165.75 197.99 165.75 7.98 165.75C7.95 165.09 7.67 163.95 8.07 163.35C8.94 162.09 18.42 157.98 19.99 157.9ZM520.97 210.92C368.99 210.92 217.01 210.92 65.04 210.92C64.73 203.22 64.98 195.46 64.97 187.75C64.97 185.08 64.08 180.39 65.34 178.03C66.28 176.26 69.11 176.86 70.75 176.86C76.08 176.86 81.42 176.86 86.75 176.86C108.75 176.86 130.75 176.86 152.75 176.86C242.92 176.86 333.08 176.86 423.25 176.86C446.75 176.86 470.25 176.86 493.75 176.86C499.92 176.86 506.08 176.86 512.25 176.86C514.43 176.86 518.13 176.16 520 177.31C521.99 178.53 521.01 183.74 521.01 185.75C521.03 194.12 521.3 202.56 520.97 210.92ZM65.95 178.29C65.95 189.01 65.95 199.74 65.95 210.46C217.33 210.46 368.7 210.46 520.08 210.46C520.08 199.74 520.08 189.01 520.08 178.29C368.7 178.29 217.33 178.29 65.95 178.29ZM157.01 222.97C157.01 309.67 157.01 396.37 157.01 483.07C137.98 483.07 118.94 483.07 99.9 483.07C99.9 396.37 99.9 309.67 99.9 222.97C118.94 222.97 137.98 222.97 157.01 222.97ZM210.18 222.97C229.03 222.97 247.89 222.97 266.75 222.97C268.37 228.62 267.11 236.32 267.11 242.25C267.11 255.92 267.11 269.58 267.11 283.25C267.11 327.75 267.09 372.25 267.11 416.75C267.12 432.42 267.11 448.08 267.11 463.75C267.11 467.48 268.28 479.25 266.68 481.99C265.61 483.83 255.17 483.08 252.75 483.08C238.63 483.08 224.26 483.83 210.18 482.98C210.18 396.31 210.18 309.64 210.18 222.97ZM319.25 222.96C338.08 222.96 356.92 222.96 375.75 222.96C376.18 223.89 376.6 224.82 377.03 225.75C376.77 225.96 376.4 225.97 376.31 226.35C376.18 226.84 377.04 227.65 377.14 228.25C377.64 231.22 377.14 234.73 377.14 237.75C377.14 250.08 377.15 262.42 377.14 274.75C377.11 324.75 377.14 374.75 377.14 424.75C377.14 439.58 377.14 454.42 377.14 469.25C377.14 472.04 378.26 482.26 375.23 483.04C371.31 484.06 365.82 483.08 361.75 483.08C352.08 483.08 342.42 483.08 332.75 483.08C330.38 483.08 320.38 483.82 319.31 482C317.7 479.27 318.87 467.48 318.87 463.75C318.87 448.08 318.87 432.42 318.87 416.75C318.87 372.25 318.87 327.75 318.87 283.25C318.87 269.58 318.87 255.92 318.87 242.25C318.87 236.32 317.61 228.61 319.25 222.96ZM428.99 222.97C448.03 222.97 467.06 222.97 486.1 222.97C486.1 309.67 486.1 396.37 486.1 483.07C467.06 483.07 448.03 483.07 428.99 483.07C428.99 396.37 428.99 309.67 428.99 222.97ZM101.04 223.93C101.04 309.94 101.04 395.96 101.04 481.97C119.4 481.97 137.75 481.97 156.11 481.97C156.11 395.96 156.11 309.94 156.11 223.93C137.75 223.93 119.4 223.93 101.04 223.93ZM265.79 223.94C247.3 223.94 228.82 223.94 210.34 223.94C210.34 309.95 210.34 395.96 210.34 481.97C228.82 481.97 247.3 481.97 265.79 481.97C265.79 395.96 265.79 309.95 265.79 223.94ZM375.52 223.93C357.13 223.93 338.74 223.93 320.35 223.93C320.35 309.95 320.35 395.96 320.35 481.97C338.74 481.97 357.13 481.97 375.52 481.97C375.52 395.96 375.52 309.95 375.52 223.93ZM429.88 223.93C429.88 309.95 429.88 395.96 429.88 481.97C448.24 481.97 466.59 481.97 484.95 481.97C484.95 395.96 484.95 309.95 484.95 223.93C466.59 223.93 448.24 223.93 429.88 223.93ZM64.25 495.02C77.65 494.24 91.32 494.94 104.75 494.94C131.25 494.94 157.75 494.94 184.25 494.94C263.08 494.94 341.92 494.89 420.75 494.94C445.08 494.96 469.42 494.94 493.75 494.94C500.42 494.94 507.08 494.94 513.75 494.94C516.06 494.94 519.96 494.21 521.98 495.33C524.06 496.47 523.12 501.27 523.12 503.25C523.12 510.02 524.49 523.03 522.75 529.01C405.11 529.65 287.41 528.92 169.75 528.92C142.92 528.92 116.08 528.93 89.25 528.93C82.75 528.93 76.25 528.92 69.75 528.92C68.05 528.92 64.37 529.72 63.31 528C61.99 525.85 62.86 521.26 62.86 518.75C62.85 514.25 61.78 503.57 62.91 499.76C63.42 498.07 63.94 496.93 64.25 495.02ZM521.57 495.95C369.22 495.95 216.87 495.95 64.51 495.95C64.51 506.57 64.51 517.18 64.51 527.79C67.84 529.26 72.63 528.44 76.25 528.42C84.25 528.39 92.25 528.42 100.25 528.42C128.75 528.42 157.25 528.41 185.75 528.41C262.75 528.41 339.75 528.41 416.75 528.41C440.58 528.41 464.42 528.5 488.25 528.39C496.79 528.35 514.11 529.99 521.57 527.89C521.57 517.25 521.57 506.6 521.57 495.95ZM558.02 574.75C557.01 575.08 556.19 575.82 555.24 576.09C551.82 577.06 546.82 576.14 543.25 576.14C534.25 576.14 525.25 576.14 516.25 576.14C487.75 576.14 459.25 576.14 430.75 576.14C335.25 576.14 239.75 576.14 144.25 576.14C116.42 576.14 88.58 576.14 60.75 576.14C53.25 576.14 45.75 576.14 38.25 576.14C35.68 576.14 31.22 576.98 28.99 575.7C26.94 574.52 27.88 569.73 27.88 567.75C27.88 559.91 26.66 550.98 27.89 543.25C28.41 539.95 32.8 540.93 35.25 540.93C42.75 540.93 50.25 540.93 57.75 540.93C90.42 540.93 123.08 540.93 155.75 540.93C257.92 540.93 360.08 540.98 462.25 540.93C486.25 540.92 510.25 540.93 534.25 540.93C540.08 540.93 545.92 540.92 551.75 540.93C553.44 540.93 556.65 540.25 557.68 542.01C558.98 544.19 558.12 548.72 558.12 551.25C558.12 559.04 558.56 566.98 558.02 574.75ZM556.73 542C380.91 542 205.1 542 29.28 542C29.28 552.78 29.28 563.55 29.28 574.33C205.1 574.33 380.91 574.33 556.73 574.33C556.73 563.55 556.73 552.78 556.73 542Z" fill="#515151" fill-rule="evenodd" stroke="#515151" stroke-width="0.25" stroke-linejoin="round"/>
</svg>