<?xml version="1.0" encoding="UTF-8"?>
<svg xmlns="http://www.w3.org/2000/svg" viewBox="0 0 512 512" width="512" height="512">
<path d="M279.91 23.57C280.08 23.74 280.26 23.91 280.44 24.09C282.38 28.49 285.82 32 287.42 36.8C291.34 48.53 287.94 62.23 279.12 70.86C276.72 73.21 273.69 75.44 270.64 76.86C268.49 77.86 265.96 78.25 264.11 79.75C265.99 98.32 267.87 116.9 269.75 135.47C260.92 135.41 252.08 135.34 243.25 135.28C245.15 116.77 247.06 98.26 248.96 79.75C247.01 78.23 244.32 77.74 242.08 76.67C235.93 73.74 230.48 68.38 227.54 62.21C218.24 42.7 229.14 17.6 251.46 14.25C259.25 13.09 267.54 14.86 274.11 19.16C276.11 20.47 277.81 22.54 279.91 23.57ZM243.05 33.09C243.03 33.31 243.02 33.53 243 33.75C242.69 33.86 242.39 33.97 242.08 34.08C238.96 35.64 237.53 41.04 237.12 44.26C235.68 55.46 244.05 66.83 255.75 66.95C267.96 67.08 277.55 56.57 275.86 44.28C275.42 41.08 274.02 35.68 270.93 34.09C270.62 33.98 270.31 33.86 270 33.75C269.98 33.53 269.96 33.31 269.94 33.09C266.97 25.25 246 25.27 243.05 33.09ZM282.5 147.99C282.64 148.04 282.78 148.09 282.93 148.14C284.31 148.42 285.7 148.7 287.08 148.98C287.54 149.03 288 149.09 288.46 149.14C299 152.1 309.55 155.07 320.09 158.03C324.6 161.43 333.12 163.65 338.45 166.3C352.46 173.29 366.09 182.49 377.69 193.05C408.19 220.8 428.44 256.48 436.81 296.86C440.38 314.12 440.11 331.73 440.11 349.25C440.11 359.08 440.11 368.92 440.1 378.75C440.1 383.32 440.97 388.96 439.75 393.36C317.58 393.37 195.42 393.38 73.25 393.39C71.49 387.71 72.86 365.63 72.86 358.25C72.86 323.91 73.4 297.76 85.33 265.1C88.95 255.17 94.01 245.65 99.29 236.53C101.47 232.77 106.19 228.12 106.98 223.98C110.98 218.98 114.98 213.98 118.98 208.97C122.86 207.04 126.35 201.41 129.61 198.36C137.71 190.77 146.27 183.38 155.64 177.39C163.81 172.16 172.27 167.44 181.04 163.29C184.55 161.64 190.22 160.53 192.97 157.99C203.5 155.04 214.04 152.09 224.58 149.13C225.01 149.09 225.45 149.04 225.89 149C227.59 148.72 229.3 148.44 231 148.16C231.31 148.11 231.61 148.05 231.92 147.99C236.03 148.4 240.57 147.32 244.75 147.09C252.1 146.69 259.4 146.73 266.75 147.04C270.34 147.18 279.73 149.09 282.5 147.99ZM135.02 263.04C131.15 265.34 128.76 273.72 127.66 277.86C123.5 293.45 126.4 308.59 135.53 321.71C137.87 325.08 141.92 331.01 146.03 331.98C150.11 339.36 169.68 342.49 177.25 342.35C206.24 341.82 229.86 314.77 226 285.75C221.95 255.24 190.87 233.95 160.97 243.73C153.3 246.24 137.38 254.58 135.02 263.04ZM376.99 321.99C380.16 320.33 381.97 314.77 383.34 311.61C388.27 300.14 389.01 286.22 384.25 274.53C382.9 271.21 381.19 264.85 377.99 263.02C377.34 260.46 373.51 255.84 370.98 255.01C369.99 252.74 366.48 250.77 364.4 249.34C356.24 243.75 346.03 241.36 336.25 241.46C307.25 241.78 284.07 267.82 286.91 296.75C289.67 324.81 313.73 343.58 341.25 342.31C351.91 341.82 361.93 337.06 370.01 330.26C372.42 328.23 376.19 325.03 376.99 321.99ZM145.98 265.97C149.21 264.61 152.01 260.42 155.22 258.48C163.85 253.25 174.19 250.93 184.17 253.18C213.59 259.81 225.1 297.85 203.75 319.5C182.85 340.69 145.69 331.74 138.34 302.34C135.91 292.63 137.16 282.99 141.24 273.97C142.47 271.25 145.25 268.69 145.98 265.97ZM367.03 265.97C367.91 269.23 371.13 272.45 372.55 275.73C376.28 284.39 377.1 294.09 374.48 303.23C366.39 331.4 329.58 340.49 309.23 319.53C287.96 297.64 299.5 260.66 328.44 253.25C338.43 250.69 349.54 253.21 358.13 258.62C361.21 260.55 363.89 264.63 367.03 265.97ZM155.02 279.05C148.25 284.24 151.31 299.84 155.31 305.95C165.11 320.93 187.24 320.31 196.91 305.65C207.01 290.35 196.94 268.63 178.66 266.7C171.62 265.96 156.29 270.74 155.02 279.05ZM334.79 266.7C302.84 269.47 306.44 318.79 338.18 317.29C371.13 315.73 368.37 263.78 334.79 266.7ZM49.24 311C49.47 310.97 49.71 310.95 49.94 310.92C54.04 309.68 58.15 308.43 62.25 307.19C61.92 332.03 61.58 356.87 61.25 381.71C57.09 381.89 43.48 376.2 41.26 372.5C38.48 367.87 40.08 359.47 40.08 354.25C40.08 344.97 38.1 325.37 42.29 317.54C43.96 314.42 46.68 313.14 49.24 311ZM464.09 310.98C466.29 313.38 469.02 314.48 470.63 317.63C474.88 325.93 472.9 344.59 472.88 354.25C472.87 359.61 474.42 367.64 471.72 372.49C469.53 376.43 456.22 381.66 451.87 381.75C451.49 356.9 451.12 332.06 450.75 307.21C455.2 308.47 459.64 309.72 464.09 310.98ZM461.26 455.96C324.75 455.96 188.24 455.96 51.73 455.96C50.59 451.53 51.26 446.33 51.26 441.75C51.26 430.57 47.31 411.59 60.36 406.13C67.3 403.23 80.06 404.94 87.75 404.94C107.58 404.94 127.42 404.94 147.25 404.94C216.25 404.94 285.25 405.15 354.25 404.95C376.92 404.89 399.58 404.94 422.25 404.94C429.82 404.94 446.22 403.31 452.65 406.09C465.63 411.72 461.73 430.52 461.73 441.75C461.73 446.31 462.45 451.57 461.26 455.96ZM341.88 467.12C341.88 479.92 341.88 492.72 341.88 505.53C284.94 505.53 227.99 505.53 171.05 505.53C171.05 492.72 171.05 479.92 171.05 467.12C227.99 467.12 284.94 467.12 341.88 467.12Z" fill="#ffffff" fill-rule="evenodd" stroke="#ffffff" stroke-width="0.25" stroke-linejoin="round"/>
<path d="M279.91 23.57C277.81 22.54 276.11 20.47 274.11 19.16C267.54 14.86 259.25 13.09 251.46 14.25C229.14 17.6 218.24 42.7 227.54 62.21C230.48 68.38 235.93 73.74 242.08 76.67C244.32 77.74 247.01 78.23 248.96 79.75C247.06 98.26 245.15 116.77 243.25 135.28C252.08 135.34 260.92 135.41 269.75 135.47C267.87 116.9 265.99 98.32 264.11 79.75C265.96 78.25 268.49 77.86 270.64 76.86C273.69 75.44 276.72 73.21 279.12 70.86C287.94 62.23 291.34 48.53 287.42 36.8C285.82 32 282.38 28.49 280.44 24.09C282.93 24.06 283.3 26 284.44 27.76C287.92 33.17 290.14 38.55 290.12 45.25C290.11 47.94 290.81 51.65 290.09 54.24C286.93 65.56 277.75 77.88 265.36 80.25C264.92 82.47 265.58 82.9 266.09 84.76C266.95 87.88 265.43 91.58 265.97 94.75C266.13 95.65 266.85 95.92 267.08 96.76C267.51 98.32 266.76 100.15 267.01 101.75C267.15 102.65 267.85 102.92 268.08 103.76C268.59 105.63 267.74 107.84 268.04 109.75C268.2 110.77 268.97 111.2 269.14 112.25C269.61 115.33 268.32 118.72 268.88 121.75C269.05 122.67 269.85 122.9 270.09 123.76C270.61 125.64 269.56 127.84 269.9 129.75C270.07 130.66 270.83 130.91 271.07 131.77C271.46 133.19 271.07 135.28 270.99 136.75C269.13 137.23 265.68 137.63 263.76 137.09C262.5 136.73 262.27 135.93 260.75 135.87C254.12 135.61 248.83 137.35 242.25 137C241.49 134.16 242.67 133.12 243.15 130.75C243.6 128.53 242.29 125.96 242.91 123.76C243.15 122.89 243.96 122.68 244.13 121.75C244.61 119.04 243.45 116 243.87 113.25C244.03 112.19 244.82 111.77 244.99 110.75C245.35 108.53 244.3 105.94 244.91 103.76C245.14 102.92 245.85 102.66 246 101.75C246.38 99.32 245.45 96.7 245.85 94.25C246 93.33 246.64 93.01 246.86 92.21C247.16 91.13 247.84 81.29 247.63 80.25C235.25 77.88 226.06 65.54 222.91 54.24C221.18 48.02 223.79 35.92 226.05 30.32C226.51 29.17 228.14 28.62 228.73 27.54C233.98 17.84 241.58 16.58 250.33 13.05C251.74 12.49 253.76 12.91 255.25 12.93C262.8 13.05 267.91 14.44 274.47 17.71C276.58 18.76 279.91 20.96 279.91 23.57ZM269.94 33.09C267.2 33.05 260.8 27.79 255.75 28.1C251.95 28.33 245.45 33.05 243.05 33.09C246 25.27 266.97 25.25 269.94 33.09ZM242.08 34.08C242.02 36.67 239.77 38.42 239.17 40.79C238.67 42.79 239.81 44.59 238.25 46C239.2 49.95 239.23 53.81 241.28 57.54C247.13 68.18 265.89 68.2 271.72 57.54C274.11 53.18 275.12 45.9 273.84 40.79C273.24 38.42 270.98 36.68 270.93 34.09C274.02 35.68 275.42 41.08 275.86 44.28C277.55 56.57 267.96 67.08 255.75 66.95C244.05 66.83 235.68 55.46 237.12 44.26C237.53 41.04 238.96 35.64 242.08 34.08ZM282.5 147.99C279.73 149.09 270.34 147.18 266.75 147.04C259.4 146.73 252.1 146.69 244.75 147.09C240.57 147.32 236.03 148.4 231.92 147.99C232.58 146.59 242 145.87 244.25 145.9C247.84 145.95 251.08 144.85 255.25 144.85C258.24 144.85 262.37 144.1 265.24 144.9C267.23 145.46 268.43 145.9 270.75 145.89C273.21 145.86 281.17 146.24 282.5 147.99ZM231 148.16C229.3 148.44 227.59 148.72 225.89 149C225.92 148.75 225.94 148.5 225.97 148.25C227.65 148.22 229.32 148.19 231 148.16ZM282.93 148.14C284.29 148.18 285.64 148.21 287 148.25C287.03 148.49 287.05 148.73 287.08 148.98C285.7 148.7 284.31 148.42 282.93 148.14ZM224.58 149.13C214.04 152.09 203.5 155.04 192.97 157.99C193.86 155.9 197.54 155.54 199.54 154.73C200.47 154.36 201.37 153.41 202.32 153.05C204.85 152.1 207.64 152.61 210.21 151.91C214.98 150.61 219.25 148.62 224.58 149.13ZM288.46 149.14C293.79 148.65 298.02 150.61 302.79 151.91C303.89 152.21 305.13 151.62 306.24 151.91C307.49 152.24 308.55 153.58 309.79 153.9C312.73 154.64 318.57 154.95 320.09 158.03C309.55 155.07 299 152.1 288.46 149.14ZM192.97 157.99C190.22 160.53 184.55 161.64 181.04 163.29C172.27 167.44 163.81 172.16 155.64 177.39C146.27 183.38 137.71 190.77 129.61 198.36C126.35 201.41 122.86 207.04 118.98 208.97C118.89 205.91 130.03 196.26 132.76 193.56C139.44 186.96 148.47 180.11 156.55 175.74C159.25 174.29 161.43 171.19 164.33 170.06C165.05 169.77 165.85 170.06 166.56 169.76C167.27 169.45 167.63 168.43 168.33 168.06C171.46 166.42 174.3 165 177.54 163.73C182.66 161.72 187.28 157.94 192.97 157.99ZM320.09 158.03C323.85 157.99 325.21 159.5 328.43 160.78C330.11 161.44 331.99 161.39 333.67 162.05C334.42 162.35 334.75 163.42 335.46 163.73C336.16 164.04 336.96 163.79 337.68 164.05C339.18 164.61 340.12 165.97 341.46 166.72C343.77 168.02 346.33 168.81 348.67 170.06C353.63 172.69 358.24 176.35 363.02 179.3C365.85 181.05 368.17 183.57 371.02 185.3C373.07 186.54 374.16 189.33 376.19 190.58C382.58 194.51 392.43 204.46 396.42 210.8C397.68 212.82 400.46 213.93 401.7 215.98C403.5 218.96 405.56 221.85 407.43 224.78C408.7 226.77 410.82 228.21 411.95 230.33C412.84 232.01 413.34 233.9 414.25 235.56C415.2 237.27 417.02 238.58 417.95 240.33C421.65 247.26 424.44 254.41 427.25 261.55C427.89 263.19 429.33 264.68 429.94 266.33C430.33 267.37 429.83 268.52 430.24 269.56C431.08 271.65 432.51 273.57 433.08 275.76C433.38 276.88 432.77 278.11 433.06 279.22C433.74 281.75 435.4 284.19 436.09 286.76C436.38 287.87 435.78 289.11 436.09 290.21C436.95 293.35 438.21 296.58 439.09 299.76C439.57 301.49 438.66 303.49 439.13 305.21C440.24 309.28 439.44 310.14 440.01 313.75C440.15 314.65 440.86 314.92 441.09 315.76C442.28 319.99 441.01 331.73 441.01 336.75C441.01 356.06 441.56 375.46 441.01 394.75C318 394.75 195 394.75 71.99 394.75C71.56 375.95 72.02 357.07 72 338.25C72 332.7 70.66 317.14 71.9 312.76C72.67 310.06 72.31 307.88 72.9 305.76C73.14 304.93 73.78 304.65 73.9 303.75C74.1 302.16 73.46 300.32 73.9 298.76C74.71 295.87 76.14 293.05 76.93 290.21C77.27 288.96 76.56 287.58 77.05 286.33C77.97 284.02 79.32 281.58 79.97 279.22C80.28 278.11 79.63 276.88 79.92 275.76C80.49 273.57 81.92 271.65 82.77 269.56C83.19 268.52 82.66 267.38 83.05 266.32C83.66 264.67 85.1 263.18 85.75 261.55C88.59 254.42 91.36 247.26 95.05 240.33C95.98 238.58 97.81 237.27 98.75 235.55C100.51 232.33 103.33 225.2 106.98 223.98C106.19 228.12 101.47 232.77 99.29 236.53C94.01 245.65 88.95 255.17 85.33 265.1C73.4 297.76 72.86 323.91 72.86 358.25C72.86 365.63 71.49 387.71 73.25 393.39C195.42 393.38 317.58 393.37 439.75 393.36C440.97 388.96 440.1 383.32 440.1 378.75C440.11 368.92 440.11 359.08 440.11 349.25C440.11 331.73 440.38 314.12 436.81 296.86C428.44 256.48 408.19 220.8 377.69 193.05C366.09 182.49 352.46 173.29 338.45 166.3C333.12 163.65 324.6 161.43 320.09 158.03ZM118.98 208.97C114.98 213.98 110.98 218.98 106.98 223.98C106.75 218.85 116.21 213.82 116.98 209.25C117.64 209.16 118.31 209.07 118.98 208.97ZM146.03 331.98C148.4 331.92 151.27 334.64 153.46 335.72C155.08 336.52 161.33 339.46 162.79 339.83C163.9 340.11 165.14 339.6 166.24 339.91C167.08 340.14 167.34 340.81 168.25 340.92C173.41 341.59 180.06 341.22 184.76 339.9C186.18 339.51 187.8 340.22 189.21 339.86C190.98 339.41 192.61 337.7 194.32 337.05C202.1 334.12 209.68 329.59 214.3 321.98C215.84 319.44 218.54 317.3 219.73 314.55C221.27 310.98 222.9 306.89 223.85 303.21C224.22 301.8 223.52 300.18 223.91 298.76C224.88 295.23 225.9 289.69 224.85 285.79C223.79 281.84 223.26 277.33 221.74 273.45C220.05 269.14 216.88 265.48 214.73 261.45C212.82 257.89 207.23 253.68 203.99 251.7C203.07 251.14 202.56 249.66 201.56 249.24C200.19 248.66 198.72 248.69 197.33 247.95C196.62 247.57 196.26 246.56 195.55 246.25C194.54 245.81 193.36 246.34 192.32 245.95C189.89 245.03 187.7 243.83 185.21 243.14C180.97 241.97 166.96 243.06 162.79 244.13C161.71 244.41 160.72 245.55 159.67 245.95C158.63 246.34 157.48 245.84 156.44 246.24C153.07 247.56 145.99 252.74 143.25 255.45C140.91 257.77 138.02 261.89 135.02 263.04C137.38 254.58 153.3 246.24 160.97 243.73C190.87 233.95 221.95 255.24 226 285.75C229.86 314.77 206.24 341.82 177.25 342.35C169.68 342.49 150.11 339.36 146.03 331.98ZM370.98 255.01C368.09 255.15 367.8 252.43 365.57 251.24C358.66 247.54 355.25 246.05 347.76 244.08C346.93 243.87 346.64 243.21 345.75 243.08C343.21 242.72 340.33 243.13 337.75 243.13C334.76 243.14 330.67 242.35 327.79 243.14C309.53 248.15 297.39 258.47 290.28 276.46C289.81 277.66 290.43 279.03 290.1 280.24C288.68 285.43 287.33 290.93 288.1 296.75C288.22 297.65 288.86 297.93 289.09 298.76C289.86 301.52 289.48 304.43 290.17 307.21C290.35 307.9 292.81 313.51 293.26 314.55C293.56 315.26 294.57 315.63 294.93 316.33C300.03 326.05 308.58 333.25 318.68 337.05C320.39 337.7 322.02 339.41 323.79 339.86C325.2 340.21 326.82 339.51 328.24 339.9C334.25 341.58 344.13 341.36 350.21 339.83C351.3 339.56 352.28 338.45 353.32 338.05C355 337.42 356.93 337.46 358.56 336.76C359.27 336.45 359.63 335.44 360.33 335.06C362.52 333.9 364.69 332.9 366.78 331.57C370.49 329.21 372.85 323.41 376.99 321.99C376.19 325.03 372.42 328.23 370.01 330.26C361.93 337.06 351.91 341.82 341.25 342.31C313.73 343.58 289.67 324.81 286.91 296.75C284.07 267.82 307.25 241.78 336.25 241.46C346.03 241.36 356.24 243.75 364.4 249.34C366.48 250.77 369.99 252.74 370.98 255.01ZM145.98 265.97C145.25 268.69 142.47 271.25 141.24 273.97C137.16 282.99 135.91 292.63 138.34 302.34C145.69 331.74 182.85 340.69 203.75 319.5C225.1 297.85 213.59 259.81 184.17 253.18C174.19 250.93 163.85 253.25 155.22 258.48C152.01 260.42 149.21 264.61 145.98 265.97C145.84 262.85 149.52 260.98 151.76 259.56C152.75 258.94 153.28 257.61 154.33 257.06C162.02 252.98 171.61 249.44 180.75 250.87C190.54 252.4 201.93 257.94 207.43 266.78C208.63 268.72 211.09 270.19 211.95 272.33C213.68 276.63 214.87 281.36 216.08 285.76C217.19 289.8 216.13 296.14 215.16 299.79C214.82 301.05 215.42 302.43 214.95 303.68C209.6 317.9 198.74 328.14 184.24 332.07C182.98 332.41 181.53 331.88 180.25 332.06C177.91 332.38 176.02 333.59 173.25 333.14C172.34 332.99 172.01 332.37 171.21 332.15C169.64 331.73 167.86 332.53 166.32 331.95C165.28 331.55 164.3 330.38 163.22 330.1C161.4 329.64 160.06 329.86 158.33 328.94C155.8 327.57 151.86 323.5 149.25 323.04C147.9 318.92 143.06 316.48 141.06 312.67C136.5 304.02 134.28 293.91 136.89 284.21C137.18 283.11 136.62 281.87 136.92 280.76C137.52 278.58 138.91 276.66 139.73 274.55C140.93 271.5 142.47 267.28 145.98 265.97ZM367.03 265.97C363.89 264.63 361.21 260.55 358.13 258.62C349.54 253.21 338.43 250.69 328.44 253.25C299.5 260.66 287.96 297.64 309.23 319.53C329.58 340.49 366.39 331.4 374.48 303.23C377.1 294.09 376.28 284.39 372.55 275.73C371.13 272.45 367.91 269.23 367.03 265.97C367.7 266.06 368.37 266.16 369.04 266.25C369.5 268.73 372.06 270.11 372.95 272.33C373.86 274.61 375.08 277 375.95 279.32C376.42 280.57 375.82 281.95 376.15 283.21C377.58 288.69 377.58 295.31 376.16 300.79C375.87 301.9 376.39 303.13 376.09 304.24C375.13 307.81 372.61 311.92 370.7 315.02C368.79 318.13 364.95 319.42 363.75 323.04C360.46 323.64 357.77 327.71 354.67 328.94C351.74 330.1 348.23 331.26 345.24 332.07C343.82 332.45 342.2 331.73 340.79 332.12C339.99 332.34 339.67 332.99 338.75 333.14C334.45 333.84 328.3 331.77 324.55 330.25C322.88 329.57 321 329.61 319.33 328.95C318.59 328.65 318.23 327.64 317.55 327.27C308.33 322.2 301.64 313.17 298.05 303.68C297.47 302.13 298.32 300.35 297.89 298.79C296.95 295.36 295.85 289.6 296.91 285.76C301.47 269.28 307.05 260.29 323.55 253.74C326.24 252.66 329.36 251.32 332.25 250.87C341.41 249.45 350.97 252.99 358.67 257.06C359.72 257.61 360.25 258.95 361.23 259.57C363.47 260.99 367.15 262.84 367.03 265.97ZM370.98 255.01C373.51 255.84 377.34 260.46 377.99 263.02C374.97 261.94 372 257.81 370.98 255.01ZM135.02 263.04C135.05 265.24 130.31 272.74 129.24 275.44C128.76 276.64 129.41 278.02 129.09 279.24C127.65 284.61 125.54 293.26 127.13 299.21C128.1 302.82 128.89 307.01 130.25 310.56C131.92 314.89 135.12 318.53 137.25 322.56C139.17 326.21 144.63 328.1 146.03 331.98C141.92 331.01 137.87 325.08 135.53 321.71C126.4 308.59 123.5 293.45 127.66 277.86C128.76 273.72 131.15 265.34 135.02 263.04ZM377.99 263.02C381.19 264.85 382.9 271.21 384.25 274.53C389.01 286.22 388.27 300.14 383.34 311.61C381.97 314.77 380.16 320.33 376.99 321.99C376.86 319.12 379.49 316.95 380.72 314.54C381.67 312.67 383.38 310.19 383.89 308.22C384.52 305.74 384.26 303.23 384.91 300.76C385.14 299.93 385.79 299.65 385.92 298.75C386.34 295.71 386.66 286.59 385.89 283.79C385.48 282.28 384.32 280.77 383.91 279.24C383.59 278.01 384.26 276.64 383.78 275.43C382.28 271.66 377.87 267.18 377.99 263.02ZM155.02 279.05C155.15 281.67 153.73 282.53 153.17 284.79C151.61 291.01 153.44 300.26 156.26 305.55C156.94 306.82 158.69 307.96 159.7 309C168.46 317.95 183.54 317.93 192.29 308.98C193.29 307.96 195.07 306.82 195.75 305.56C200.29 297.09 201.31 280.27 191.97 274.7C190.63 273.9 189.93 271.99 188.56 271.25C186.04 269.86 183.45 269.82 180.76 269.09C178.3 268.43 176.08 267.79 173.25 268.14C170.81 268.45 165.34 270.04 163.21 271.42C160.19 273.38 158.4 277.8 155.02 279.05C156.29 270.74 171.62 265.96 178.66 266.7C196.94 268.63 207.01 290.35 196.91 305.65C187.24 320.31 165.11 320.93 155.31 305.95C151.31 299.84 148.25 284.24 155.02 279.05ZM334.79 266.7C368.37 263.78 371.13 315.73 338.18 317.29C306.44 318.79 302.84 269.47 334.79 266.7ZM333.47 268.29C331.24 269.17 328.68 269.3 326.45 270.27C324.72 271.01 317.01 277.62 316.21 279.43C315.89 280.13 314.32 284.1 314.15 284.79C313.87 285.89 314.41 287.13 314.1 288.24C313.86 289.07 313.19 289.36 313.04 290.25C312.71 292.31 313.63 293.09 314.1 294.76C314.41 295.86 313.89 297.1 314.17 298.21C315.43 303.21 321.47 311.54 326.43 313.79C328.64 314.78 330.94 314.27 333.24 314.9C335.42 315.51 337.65 316.52 340.21 315.85C352.83 312.51 359.85 305.65 359.85 291.75C359.85 289.62 360.34 286.86 359.82 284.79C359.39 283.06 357.84 281.28 357.05 279.68C353.39 272.25 349.19 271.1 341.76 269.09C339.4 268.45 336.13 267.23 333.47 268.29ZM49.24 311C46.68 313.14 43.96 314.42 42.29 317.54C38.1 325.37 40.08 344.97 40.08 354.25C40.08 359.47 38.48 367.87 41.26 372.5C43.48 376.2 57.09 381.89 61.25 381.71C61.58 356.87 61.92 332.03 62.25 307.19C58.15 308.43 54.04 309.68 49.94 310.92C51.92 306.18 58.91 307.2 62.75 304.97C66.51 309.23 63.05 319.74 63.08 324.75C63.17 343.98 64.08 363.56 63.01 382.75C58.55 383.96 49.85 378.91 45.56 377.24C43.7 376.51 40.97 376.09 40.05 373.68C38.19 368.75 38.92 362.68 38.92 357.25C38.92 348.03 37.23 326.81 40.07 319.33C41.75 314.9 45.08 313.49 47.97 310.25C48.39 310.5 48.82 310.75 49.24 311ZM464.09 310.98C459.64 309.72 455.2 308.47 450.75 307.21C451.12 332.06 451.49 356.9 451.87 381.75C456.22 381.66 469.53 376.43 471.72 372.49C474.42 367.64 472.87 359.61 472.88 354.25C472.9 344.59 474.88 325.93 470.63 317.63C469.02 314.48 466.29 313.38 464.09 310.98C469.61 310.82 472.9 318.37 474.09 322.76C474.64 324.78 474.1 327.65 474.09 329.75C474.08 339.25 474.09 348.75 474.09 358.25C474.09 363.39 474.74 369.02 472.95 373.68C471.63 377.11 463.5 379.02 460.46 380.26C457.08 381.63 453.92 383.82 449.98 382.75C448.82 363.55 449.97 343.99 449.91 324.75C449.91 323.08 449.29 322.64 448.9 321.24C448.08 318.32 448.41 307.02 450.25 304.97C454.05 307.19 462.03 306.63 464.09 310.98ZM462.75 457.08C325.25 457.08 187.75 457.08 50.25 457.08C48.41 450.53 49.88 436.62 49.88 429.25C49.88 425.53 48.93 420.34 49.91 416.76C50.81 413.53 53.16 411.09 54.25 407.96C56.96 407.45 59.02 404.62 61.76 403.92C64.06 403.32 67.36 403.97 69.75 403.97C77.42 403.97 85.08 403.97 92.75 403.97C115.92 403.95 139.08 403.97 162.25 403.97C220.75 403.97 279.25 404 337.75 403.97C364.42 403.95 391.08 403.97 417.75 403.97C425.75 403.97 433.75 403.96 441.75 403.97C444.57 403.97 449.06 403.07 451.67 404.05C466.57 409.65 463.12 427.2 463.12 440.25C463.12 445.48 464.16 452.09 462.75 457.08ZM461.26 455.96C462.45 451.57 461.73 446.31 461.73 441.75C461.73 430.52 465.63 411.72 452.65 406.09C446.22 403.31 429.82 404.94 422.25 404.94C399.58 404.94 376.92 404.89 354.25 404.95C285.25 405.15 216.25 404.94 147.25 404.94C127.42 404.94 107.58 404.94 87.75 404.94C80.06 404.94 67.3 403.23 60.36 406.13C47.31 411.59 51.26 430.57 51.26 441.75C51.26 446.33 50.59 451.53 51.73 455.96C188.24 455.96 324.75 455.96 461.26 455.96ZM169.94 465.89C227.54 465.89 285.15 465.89 342.75 465.89C344.52 472.73 343.08 488.89 343.08 496.75C343.08 498.97 344.21 505.39 342.01 506.69C339.25 508.32 332.97 507.14 329.75 507.14C319.42 507.15 309.08 507.15 298.75 507.14C269.25 507.13 239.75 507.14 210.25 507.14C201.25 507.14 192.25 507.15 183.25 507.14C179.07 507.14 173.91 507.92 169.94 506.75C169.94 493.13 169.94 479.51 169.94 465.89ZM341.88 467.12C284.94 467.12 227.99 467.12 171.05 467.12C171.05 479.92 171.05 492.72 171.05 505.53C227.99 505.53 284.94 505.53 341.88 505.53C341.88 492.72 341.88 479.92 341.88 467.12Z" fill="#525252" fill-rule="evenodd" stroke="#525252" stroke-width="0.25" stroke-linejoin="round"/>
</svg>